<svg width="44" height="44" viewBox="0 0 44 44" fill="none" xmlns="http://www.w3.org/2000/svg">
<ellipse cx="22" cy="22.0361" rx="22" ry="21.5" fill="white"></ellipse>
<path d="M27.9288 7.70312H16.0725C11.2541 7.70312 7.33398 11.5341 7.33398 16.2431V27.8298C7.33398 32.5388 11.2541 36.3698 16.0725 36.3698H27.9288C32.7472 36.3698 36.6673 32.5388 36.6673 27.8298V16.2431C36.6673 11.5341 32.7472 7.70312 27.9288 7.70312ZM33.7164 27.8298C33.7164 30.9536 31.1251 33.4859 27.9288 33.4859H16.0725C12.8762 33.4859 10.2849 30.9536 10.2849 27.8298V16.2431C10.2849 13.1193 12.8762 10.587 16.0725 10.587H27.9288C31.1251 10.587 33.7164 13.1193 33.7164 16.2431V27.8298Z" fill="url(#paint0_linear_2445_14570)"></path>
<path d="M22.0007 14.6221C17.8174 14.6221 14.4141 17.9481 14.4141 22.0362C14.4141 26.1244 17.8174 29.4505 22.0007 29.4505C26.184 29.4505 29.5873 26.1244 29.5873 22.0362C29.5873 17.948 26.184 14.6221 22.0007 14.6221ZM22.0007 26.5666C19.4405 26.5666 17.365 24.5384 17.365 22.0363C17.365 19.5342 19.4405 17.5059 22.0007 17.5059C24.561 17.5059 26.6364 19.5342 26.6364 22.0363C26.6364 24.5383 24.5609 26.5666 22.0007 26.5666Z" fill="url(#paint1_linear_2445_14570)"></path>
<path d="M29.6011 16.4546C30.6051 16.4546 31.419 15.6592 31.419 14.678C31.419 13.6968 30.6051 12.9014 29.6011 12.9014C28.5971 12.9014 27.7832 13.6968 27.7832 14.678C27.7832 15.6592 28.5971 16.4546 29.6011 16.4546Z" fill="url(#paint2_linear_2445_14570)"></path>
<defs>
<linearGradient id="paint0_linear_2445_14570" x1="22.0007" y1="36.2863" x2="22.0007" y2="7.92578" gradientUnits="userSpaceOnUse">
<stop stop-color="#EF9D2E"></stop>
<stop offset="0.3" stop-color="#DF4445"></stop>
<stop offset="0.6" stop-color="#DA2487"></stop>
<stop offset="1" stop-color="#7024C4"></stop>
<stop offset="1" stop-color="#7F26E1"></stop>
</linearGradient>
<linearGradient id="paint1_linear_2445_14570" x1="22.0007" y1="36.2862" x2="22.0007" y2="7.92562" gradientUnits="userSpaceOnUse">
<stop stop-color="#E09B3D"></stop>
<stop offset="0.3" stop-color="#C74C4D"></stop>
<stop offset="0.6" stop-color="#C21975"></stop>
<stop offset="1" stop-color="#7024C4"></stop>
</linearGradient>
<linearGradient id="paint2_linear_2445_14570" x1="29.6011" y1="36.2864" x2="29.6011" y2="7.92585" gradientUnits="userSpaceOnUse">
<stop stop-color="#FFAA36"></stop>
<stop offset="0.3" stop-color="#EB3B3C"></stop>
<stop offset="0.6" stop-color="#E6218C"></stop>
<stop offset="1" stop-color="#7D24DF"></stop>
</linearGradient>
</defs>
</svg>
