<svg width="40" height="40" viewBox="0 0 40 40" fill="none" xmlns="http://www.w3.org/2000/svg">
<path d="M20.0931 12.2837C15.789 12.2837 12.2832 15.7895 12.2832 20.0936C12.2832 24.3977 15.789 27.9035 20.0931 27.9035C24.3973 27.9035 27.903 24.3977 27.903 20.0936C27.903 15.7895 24.3973 12.2837 20.0931 12.2837ZM20.0931 26.168C16.7435 26.168 14.0187 23.4432 14.0187 20.0936C14.0187 16.744 16.7435 14.0192 20.0931 14.0192C23.4427 14.0192 26.1675 16.744 26.1675 20.0936C26.1675 23.4432 23.4427 26.168 20.0931 26.168Z" fill="#A8A8A8"></path>
<path d="M20.0947 15.7549C17.6997 15.7549 15.7559 17.6987 15.7559 20.0937C15.7559 20.571 16.1464 20.9615 16.6236 20.9615C17.1009 20.9615 17.4914 20.571 17.4914 20.0937C17.4914 18.6619 18.6629 17.4904 20.0947 17.4904C20.572 17.4904 20.9625 17.0999 20.9625 16.6227C20.9625 16.1454 20.572 15.7549 20.0947 15.7549Z" fill="#A8A8A8"></path>
<path d="M39.1142 13.4636C38.4634 6.93799 33.2481 1.7227 26.7225 1.07187C23.8762 0.785511 21.0647 1.35824 18.5915 2.72931C17.4634 3.35411 16.2225 3.50163 15.0684 3.15452C13.5498 2.68592 11.9618 2.60783 10.3651 2.9289C6.65102 3.6665 3.6659 6.65163 2.92829 10.3744C2.6159 11.971 2.68532 13.5504 3.15391 15.0777C3.5097 16.2231 3.3535 17.4727 2.72871 18.6008C1.36631 21.0653 0.784906 23.8768 1.07127 26.7231C1.7221 33.2574 6.93738 38.464 13.463 39.1148C13.9403 39.1582 14.4089 39.1843 14.8775 39.1843C17.2291 39.1843 19.5287 38.5942 21.594 37.4487C22.7134 36.8239 23.963 36.6764 25.1171 37.0235C26.6357 37.4921 28.2237 37.5702 29.8204 37.2491C33.5345 36.5115 36.5283 33.5264 37.2659 29.8037C37.5783 28.207 37.5089 26.6277 37.0403 25.1004C36.6845 23.9549 36.8407 22.7053 37.4655 21.5772C38.8366 19.1041 39.4093 16.2925 39.1229 13.4463L39.1142 13.4636ZM35.9382 20.7529C35.0878 22.2975 34.8882 24.0244 35.3742 25.6297C35.756 26.8706 35.8167 28.1723 35.5564 29.4826C34.9576 32.5198 32.5105 34.9582 29.482 35.557C28.1717 35.8173 26.87 35.7566 25.6291 35.3748C24.0324 34.8801 22.2969 35.0797 20.7609 35.9388C18.6002 37.1363 16.1357 37.6396 13.6452 37.388C7.93532 36.8153 3.37086 32.2595 2.80681 26.5496C2.55515 24.0591 3.05846 21.5946 4.25598 19.4339C5.10639 17.8892 5.30598 16.1624 4.82003 14.557C4.43821 13.3161 4.37747 12.0144 4.6378 10.7041C5.23656 7.66692 7.68367 5.22849 10.7122 4.62973C11.2415 4.52559 11.7709 4.47353 12.2915 4.47353C13.0638 4.47353 13.8188 4.58634 14.5651 4.81196C16.1618 5.30659 17.8973 5.107 19.4333 4.24791C21.594 3.05039 24.0498 2.54708 26.549 2.79873C32.2589 3.37146 36.8147 7.92725 37.3874 13.6372C37.639 16.1277 37.1357 18.5921 35.9382 20.7529Z" fill="#A8A8A8"></path>
<path d="M20.0931 12.2837C15.789 12.2837 12.2832 15.7895 12.2832 20.0936C12.2832 24.3977 15.789 27.9035 20.0931 27.9035C24.3973 27.9035 27.903 24.3977 27.903 20.0936C27.903 15.7895 24.3973 12.2837 20.0931 12.2837ZM20.0931 26.168C16.7435 26.168 14.0187 23.4432 14.0187 20.0936C14.0187 16.744 16.7435 14.0192 20.0931 14.0192C23.4427 14.0192 26.1675 16.744 26.1675 20.0936C26.1675 23.4432 23.4427 26.168 20.0931 26.168Z" stroke="#A8A8A8"></path>
<path d="M20.0947 15.7549C17.6997 15.7549 15.7559 17.6987 15.7559 20.0937C15.7559 20.571 16.1464 20.9615 16.6236 20.9615C17.1009 20.9615 17.4914 20.571 17.4914 20.0937C17.4914 18.6619 18.6629 17.4904 20.0947 17.4904C20.572 17.4904 20.9625 17.0999 20.9625 16.6227C20.9625 16.1454 20.572 15.7549 20.0947 15.7549Z" stroke="#A8A8A8"></path>
<path d="M39.1142 13.4636C38.4634 6.93799 33.2481 1.7227 26.7225 1.07187C23.8762 0.785511 21.0647 1.35824 18.5915 2.72931C17.4634 3.35411 16.2225 3.50163 15.0684 3.15452C13.5498 2.68592 11.9618 2.60783 10.3651 2.9289C6.65102 3.6665 3.6659 6.65163 2.92829 10.3744C2.6159 11.971 2.68532 13.5504 3.15391 15.0777C3.5097 16.2231 3.3535 17.4727 2.72871 18.6008C1.36631 21.0653 0.784906 23.8768 1.07127 26.7231C1.7221 33.2574 6.93738 38.464 13.463 39.1148C13.9403 39.1582 14.4089 39.1843 14.8775 39.1843C17.2291 39.1843 19.5287 38.5942 21.594 37.4487C22.7134 36.8239 23.963 36.6764 25.1171 37.0235C26.6357 37.4921 28.2237 37.5702 29.8204 37.2491C33.5345 36.5115 36.5283 33.5264 37.2659 29.8037C37.5783 28.207 37.5089 26.6277 37.0403 25.1004C36.6845 23.9549 36.8407 22.7053 37.4655 21.5772C38.8366 19.1041 39.4093 16.2925 39.1229 13.4463L39.1142 13.4636ZM35.9382 20.7529C35.0878 22.2975 34.8882 24.0244 35.3742 25.6297C35.756 26.8706 35.8167 28.1723 35.5564 29.4826C34.9576 32.5198 32.5105 34.9582 29.482 35.557C28.1717 35.8173 26.87 35.7566 25.6291 35.3748C24.0324 34.8801 22.2969 35.0797 20.7609 35.9388C18.6002 37.1363 16.1357 37.6396 13.6452 37.388C7.93532 36.8153 3.37086 32.2595 2.80681 26.5496C2.55515 24.0591 3.05846 21.5946 4.25598 19.4339C5.10639 17.8892 5.30598 16.1624 4.82003 14.557C4.43821 13.3161 4.37747 12.0144 4.6378 10.7041C5.23656 7.66692 7.68367 5.22849 10.7122 4.62973C11.2415 4.52559 11.7709 4.47353 12.2915 4.47353C13.0638 4.47353 13.8188 4.58634 14.5651 4.81196C16.1618 5.30659 17.8973 5.107 19.4333 4.24791C21.594 3.05039 24.0498 2.54708 26.549 2.79873C32.2589 3.37146 36.8147 7.92725 37.3874 13.6372C37.639 16.1277 37.1357 18.5921 35.9382 20.7529Z" stroke="#A8A8A8"></path>
</svg>
