<svg width="43" height="37" viewBox="0 0 43 37" fill="none" xmlns="http://www.w3.org/2000/svg">
<g clip-path="url(#clip0_937_12784)">
<path d="M11.7742 30.2841C11.6695 30.2532 11.56 30.282 11.4806 30.3621C10.644 31.1249 9.79478 31.6686 9.34242 31.7086C9.2799 31.6454 9.30589 31.3609 9.31502 31.2541L9.32416 31.1186C9.3375 30.7343 9.35296 30.2995 9.00315 30.1169C8.64421 29.9378 8.15041 30.1478 7.2471 30.865C7.07922 30.9914 6.91697 31.1256 6.75049 31.2633C6.6655 31.3335 6.5798 31.4052 6.4913 31.4761C6.64162 30.8783 6.62897 30.4913 6.45337 30.3262C6.38313 30.2595 6.25318 30.1963 6.03051 30.2736C5.97853 30.2932 5.93639 30.322 5.89986 30.355C5.89635 30.3578 5.89214 30.3586 5.88933 30.3614C4.8954 31.2724 3.93871 31.8526 3.3269 31.9137C3.22856 31.9249 3.02627 31.9348 2.92652 31.8343C3.19555 31.7887 3.38942 31.6917 3.53973 31.6159C4.0525 31.3391 4.24286 30.5313 4.01457 30.105C3.88743 29.8823 3.6177 29.7158 3.24472 29.9181C2.63923 30.2405 2.0773 31.2366 2.28381 31.9397C2.41095 32.3597 2.82116 32.5318 3.20749 32.5318C3.27492 32.5318 3.34165 32.5262 3.40557 32.5164C4.08692 32.4419 4.9804 31.9481 5.94973 31.1186C5.92655 31.2071 5.89705 31.3138 5.8521 31.4557C5.70389 31.9741 5.70951 32.2755 5.87036 32.4033C5.91813 32.4412 5.97432 32.4602 6.03824 32.4602C6.11832 32.4602 6.21103 32.4307 6.3178 32.3717C6.42668 32.3021 6.58191 32.1785 7.0427 31.8097L7.61377 31.3532C8.31057 30.799 8.60418 30.6894 8.70111 30.6676C8.71305 30.7393 8.72078 30.891 8.70462 31.1319C8.68144 31.493 8.68706 31.9369 8.93712 32.1736C9.06286 32.2923 9.22933 32.3401 9.43373 32.3155C10.1699 32.2291 11.3366 31.3398 11.9013 30.7983C11.9835 30.7259 12.0179 30.6255 11.9955 30.5222C11.9716 30.4091 11.8838 30.315 11.7728 30.282L11.7742 30.2841ZM3.24331 31.0806C3.16253 31.1249 3.06911 31.172 2.94338 31.205C3.0649 30.8994 3.27773 30.6135 3.49899 30.473C3.51655 30.6374 3.42383 30.9739 3.24331 31.0806Z" fill="#A8A8A8"></path>
<path d="M40.1229 30.4913V25.7654H0V36.1486H40.1229V33.4675C39.8749 33.5412 39.6354 33.6691 39.4036 33.6838V35.43H0.719277V26.4847H39.4036V30.8172C39.5588 30.7772 39.7921 30.688 40.1229 30.4913Z" fill="#A8A8A8"></path>
<path d="M42.3516 29.7095C40.0456 31.9369 38.8922 32.2249 38.3162 32.0682C37.8442 31.9376 37.5043 31.3609 37.2156 30.2862C37.0062 29.4475 36.2722 30.2862 36.0362 30.6795C35.7215 31.2295 35.2502 32.0682 34.6735 32.3042C34.1755 32.5136 34.0968 32.3569 34.0708 32.3042C33.7302 31.5702 34.7522 29.1855 35.8002 28.6355C36.2455 28.3735 36.4815 28.5568 36.4289 29.0808C36.3762 29.5529 37.1102 29.6575 37.1629 29.1595C37.2675 28.1635 36.5342 27.3775 35.4335 27.9542C34.6145 28.3953 33.8531 29.5739 33.4892 30.695C33.1914 30.9556 32.7468 31.2647 32.3323 31.4606C31.8954 31.6679 31.4754 31.7571 31.2998 31.788C31.2977 31.7388 31.2661 30.9387 31.0827 30.1928C30.9198 29.5297 31.061 29.3632 31.1741 29.2298C31.1867 29.215 31.1986 29.201 31.2099 29.1869C31.5091 28.8097 31.6889 28.4936 31.7304 28.2731C31.7739 28.0427 31.6306 27.7982 31.4796 27.6683C31.3679 27.572 31.2485 27.5355 31.153 27.5692C30.9233 27.6493 30.1246 28.2639 30.2553 29.2206C30.0867 29.4054 28.9818 30.6009 27.9029 31.3918C27.5819 31.6271 27.2812 31.7992 27.008 31.9235C26.5247 32.1216 26.1834 32.1343 25.9424 32.0682C25.9333 32.0654 25.9249 32.0626 25.9157 32.0598C25.4578 31.9144 25.1248 31.3405 24.8417 30.2862C24.6324 29.4475 23.8984 30.2862 23.6624 30.6795C23.4896 30.9823 23.269 31.3714 23.0098 31.7002C22.8483 31.9053 22.672 32.0858 22.4823 32.208C22.4226 32.2466 22.3615 32.279 22.2997 32.3049C21.8017 32.5143 21.723 32.3576 21.697 32.3049C21.6324 32.1652 21.6169 31.9657 21.6415 31.7304C21.6633 31.5253 21.7153 31.2935 21.7918 31.0504C22.0883 30.1057 22.752 28.9909 23.4264 28.6362C23.8717 28.3742 24.1077 28.5575 24.055 29.0815C24.0024 29.5536 24.7364 29.6582 24.7891 29.1602C24.8937 28.1642 24.1604 27.3782 23.0597 27.9549C22.4781 28.2681 21.9253 28.9537 21.5235 29.7264C21.3191 29.923 21.1168 30.1113 20.9173 30.2904C20.7417 30.4477 20.5689 30.5988 20.3975 30.7428C18.7012 32.1708 17.2149 32.9357 16.0102 33.065C15.3029 33.1436 14.8835 32.9076 14.7522 32.4363C14.3855 31.2569 15.5122 29.8423 16.5075 29.3962C16.5075 29.4489 16.5075 29.5009 16.4549 29.5796C16.2975 30.0249 16.9789 30.3136 17.1622 29.8675C17.4502 29.0815 16.9262 28.3475 16.0355 28.7928C14.5941 29.5269 13.6248 31.3609 14.0175 32.6449C14.2795 33.5096 15.2228 33.877 16.1135 33.7716C17.571 33.5812 19.3186 32.6077 20.9293 31.2626C20.9391 31.2703 20.9482 31.2773 20.9581 31.285C20.8555 31.8076 20.8604 32.2825 21.0136 32.6189C21.3542 33.2216 21.9309 33.2476 22.5856 33.0123C22.8504 32.9062 23.0885 32.7292 23.3013 32.5164C23.4706 32.3478 23.6244 32.1567 23.7635 31.9615C23.9693 31.6728 24.1435 31.3742 24.2889 31.1256C24.4168 31.4698 24.5811 31.8203 24.8073 32.1167C25.018 32.3927 25.2822 32.6224 25.6193 32.7552C25.6636 32.7728 25.7092 32.7889 25.7556 32.803C26.8289 33.1092 28.3005 32.3436 30.3403 30.3866C30.4555 30.8643 30.5208 31.4417 30.518 31.9727L30.5152 31.9516C30.3887 31.9678 27.4126 32.3555 27.5475 33.6325C27.5847 33.983 27.7526 34.238 28.0476 34.389C28.2667 34.5014 28.5301 34.5436 28.7928 34.5436C29.2916 34.5436 29.7875 34.3925 29.968 34.29C30.6627 33.8945 31.0764 33.3635 31.2324 32.6674C31.4747 32.5866 32.7397 32.1539 33.2659 31.7922C33.249 32.1111 33.2848 32.3963 33.386 32.6203C33.7266 33.223 34.3033 33.249 34.958 33.0137C35.744 32.699 36.2947 31.7557 36.6614 31.127C36.9234 31.8343 37.3427 32.5684 38.1287 32.8044C39.2294 33.119 40.7494 32.3063 42.8721 30.2363C43.2388 29.9216 42.7148 29.3457 42.3481 29.7123L42.3516 29.7095ZM29.0001 33.0572C29.4299 32.8816 29.9771 32.7643 30.4267 32.7447C30.407 32.862 30.3628 32.9575 30.329 33.0376C30.0565 33.6838 28.8659 34.028 28.4529 33.7407C28.0813 33.4864 28.8245 33.1345 29.0001 33.0565V33.0572ZM31.2429 31.7971C31.2429 31.7971 31.2429 31.7943 31.2429 31.7922L31.2808 31.7908C31.2661 31.7936 31.2534 31.795 31.2436 31.7971H31.2429Z" fill="#A8A8A8"></path>
<path d="M15.5603 15.9533C15.0792 15.9807 14.5882 15.8761 14.1618 15.64C12.9024 14.9418 12.1606 13.2659 11.9246 11.8905C11.6387 10.2223 11.7483 7.65494 13.4468 6.72915C13.8471 6.5107 14.3037 6.41377 14.7582 6.41377C16.8612 6.41377 18.3314 8.48169 18.3314 11.4424C18.3314 12.5845 18.0806 14.1867 17.2567 15.1455C16.8254 15.6478 16.201 15.9175 15.5603 15.954M15.1508 5.06934C11.1281 5.06934 9.29688 8.22811 9.29688 11.1635C9.29688 14.0989 11.0859 17.257 15.0153 17.257C18.462 17.257 20.8692 14.644 20.8692 10.9022C20.8692 7.35922 18.6243 5.07004 15.1508 5.07004" fill="#A8A8A8"></path>
<path d="M5.07149 19.6277C5.16491 18.7834 5.16491 13.7512 5.16491 11.9214V3.15806C5.16491 3.15806 0.801486 3.20021 0.262731 3.20021C-0.0898839 3.20021 -0.0898839 1.35144 0.276779 1.35144C0.359664 1.35144 1.95486 1.40553 3.14827 1.40553H12.4926C13.4022 1.40553 15.3711 1.35144 15.4364 1.35144C15.8031 1.35144 15.8136 3.15104 15.4511 3.15104C15.0255 3.15104 13.0847 3.13629 11.7164 3.12997L7.4534 3.15806V11.9214C7.4534 13.7512 7.47658 18.7834 7.5707 19.6509C7.64094 20.2135 5.00125 20.2135 5.07149 19.6277Z" fill="#A8A8A8"></path>
<path d="M38.4745 16.5167C37.647 17.1074 36.5274 17.1755 35.7575 17.1755C35.2384 17.1755 34.7116 17.087 34.2101 16.9571C33.2998 16.7211 32.6809 16.3811 32.447 15.4054C32.3929 15.1793 32.3396 14.8772 32.4688 14.6651C32.5313 14.5618 32.6374 14.5 32.7526 14.5C32.9184 14.5 33.0244 14.5681 33.2169 14.6918C33.3265 14.7627 33.4768 14.8596 33.7086 14.9938C34.4075 15.397 35.0607 15.7314 35.9837 15.7314C37.1202 15.7314 37.8255 15.1652 37.8255 14.2535C37.8255 13.7077 37.8044 12.9132 36.5337 12.1638C35.1654 11.3581 33.2696 10.5032 33.0504 8.72261C33.0328 8.57862 33.0251 8.43322 33.0251 8.28782C33.0251 6.40322 34.7664 5.03491 37.1659 5.03491C38.1612 5.03491 38.5834 5.18804 39.0308 5.38823C39.4965 5.59685 39.9952 5.9312 39.9784 6.49384C39.9692 6.78183 39.8674 7.50743 39.4705 7.50813H39.4101L39.3441 7.48074C39.2338 7.43086 39.1165 7.35079 38.9669 7.25034C38.8889 7.19766 38.8025 7.13796 38.707 7.07755L38.6122 7.01644C37.6906 6.425 35.5278 6.12788 35.315 7.6458C35.2398 8.18315 35.2932 8.87504 36.5892 9.59642L37.2143 9.94412C39.1418 11.0076 40.1238 11.9404 40.1238 13.5244C40.1238 14.7754 39.5998 15.7264 38.4752 16.5174" fill="#A8A8A8"></path>
<path d="M34.9541 20.0288C34.2777 20.1201 33.6427 20.0344 33.4383 20.0126C31.5165 19.8117 30.2535 18.5621 28.9962 17.2338C27.8499 16.0229 26.719 14.7978 25.5895 13.5707C25.2579 13.2104 24.9264 12.85 24.5955 12.4883C24.5955 12.4883 24.5956 14.5021 24.5963 16.4078C24.6124 18.1926 24.6419 19.1585 24.6946 19.6537C24.7627 20.2114 22.4461 20.2114 22.5143 19.6305C22.5571 19.2378 22.5803 18.8101 22.5923 17.3912C22.593 14.1994 22.5944 10.4232 22.5944 8.37773C22.5782 6.80361 22.5487 6.00425 22.4995 5.53925C22.4314 4.98223 24.7332 4.98223 24.6651 5.56243C24.6229 5.95157 24.6005 6.28663 24.5885 7.67601C24.5892 8.79567 24.5963 11.4375 24.5963 11.4375C27.368 8.68117 30.139 5.92418 32.9122 3.16929C33.5366 2.54905 34.159 1.92671 34.7919 1.3149C35.3334 0.790897 35.9502 0.0983119 36.7495 0.0119144C37.2805 -0.0449816 38.2148 0.0526547 37.5067 0.694666C37.2784 0.901177 34.6837 3.23953 32.0524 5.88203C29.4134 8.53226 26.7372 11.4866 26.4204 11.8477C26.1858 12.1174 30.427 16.1964 30.8422 16.6192C32.0714 17.8709 33.0541 18.7602 35.056 19.339C35.2239 19.3874 35.6875 19.5005 35.6299 19.7576C35.5821 19.9719 35.1122 20.0056 34.9541 20.0274" fill="#A8A8A8"></path>
</g>
<defs>
<clipPath id="clip0_937_12784">
<rect width="43" height="36.1486" fill="white"></rect>
</clipPath>
</defs>
</svg>
