<svg width="39" height="38" viewBox="0 0 39 38" fill="none" xmlns="http://www.w3.org/2000/svg">
<circle cx="19.2376" cy="19.0022" r="18.972" fill="white" fill-opacity="0.7"></circle>
<g clip-path="url(#clip0_1716_19324)">
<path fill-rule="evenodd" clip-rule="evenodd" d="M28.3527 18.0348H27.2865V12.7227H28.3527V13.3192C28.6018 12.871 29.1443 12.6662 29.6299 12.6662H29.9525V13.7301H29.6236C28.7287 13.7301 28.3527 14.2115 28.3527 15.0883V18.0341V18.0348ZM8.51562 10.7539H9.66097V15.2012C9.66097 17.8731 13.1671 17.6825 13.1671 15.1941V10.7539H14.252V18.0326H13.1671V17.3776C12.6079 17.9077 11.9634 18.1632 11.3363 18.1851C9.88019 18.2338 8.51562 17.0218 8.51562 15.053V10.7539ZM16.216 18.0214H15.1532V10.7567H16.216V13.3708C16.8112 12.847 17.507 12.6197 18.1737 12.6429C19.8886 12.703 20.7981 13.9701 20.8133 15.2753C20.83 16.6872 19.8157 18.1463 18.0807 18.2042C17.4196 18.2261 16.7509 17.9712 16.216 17.3839V18.0214ZM17.9905 13.6094C17.0082 13.6094 16.2118 14.4197 16.2118 15.4193C16.2118 16.4189 17.0082 17.2293 17.9905 17.2293C18.9729 17.2293 19.7693 16.4189 19.7693 15.4193C19.7693 14.4197 18.9729 13.6094 17.9905 13.6094ZM26.5747 15.7546H22.3659C22.6586 16.7465 23.369 17.2583 24.1175 17.2463C24.6434 17.2378 25.188 16.9709 25.6188 16.4302C25.8574 16.6194 26.0967 16.8086 26.3354 16.9978C25.5868 18.3623 23.4203 18.4541 22.2889 17.5533C21.473 16.9032 21.2552 16.0963 21.2677 15.3149C21.2955 13.5804 22.7294 12.5815 24.1009 12.5971C25.4294 12.6126 26.6989 13.5804 26.574 15.7553L26.5747 15.7546ZM25.498 14.8998C25.3704 13.3143 22.7786 12.9684 22.3784 14.8998H25.498Z" fill="#171717"></path>
<path fill-rule="evenodd" clip-rule="evenodd" d="M9.93281 25.903V24.1114H13.5006V22.8817H9.93281V21.0901H13.6068V19.8604H8.54883V27.1313H13.6068V25.9023H9.93281V25.903ZM29.7921 23.4697H28.4511C28.4144 23.2841 28.3173 23.1316 28.1688 23.0073C27.96 22.8323 27.6603 22.713 27.3571 22.6833C26.8847 22.6367 26.3436 22.8824 26.3283 23.1746C26.3186 23.3554 26.5094 23.5544 27.0415 23.7126C27.9308 23.9773 29.0693 23.8622 29.6922 24.6895C30.4213 25.6581 29.6568 27.1836 27.5555 27.2492C26.2999 27.2887 24.9818 26.729 24.8077 25.3679H26.1355C26.2409 25.5896 26.3831 25.7908 26.6197 25.9397C27.0803 26.2292 28.4442 26.2878 28.5302 25.6185C28.5427 25.5211 28.5011 25.4223 28.3769 25.3333C28.1397 25.1632 27.704 25.1117 27.3176 25.0312C25.645 24.7968 25.0325 24.2427 24.9159 23.5403C24.8653 23.2346 24.9041 22.9163 25.047 22.6438C25.1448 22.4574 25.2753 22.2901 25.43 22.1433C25.9107 21.688 26.6641 21.4889 27.3946 21.5115C28.4269 21.544 29.7449 22.1221 29.7935 23.4711L29.7921 23.4697ZM24.4476 25.8818V27.113H22.979C22.073 27.113 21.5638 26.5045 21.5638 25.6277V22.9749H20.5552V21.7607H21.5638V20.2077H22.918V21.7607H24.4483V22.9749H22.918V25.2966C22.918 25.8056 23.0914 25.8818 23.5701 25.8818H24.4483H24.4476ZM18.6231 22.2026V21.7501H20.0036V27.1101H18.6231V26.6104C18.0681 27.0551 17.4167 27.276 16.7952 27.2443C15.3959 27.173 14.057 25.9835 14.0896 24.3549C14.1222 22.7066 15.5811 21.5877 17.0047 21.6068C17.5694 21.6139 18.1368 21.8002 18.6231 22.2033V22.2026ZM17.022 22.8047C16.1458 22.8047 15.4354 23.5276 15.4354 24.4192C15.4354 25.3108 16.1458 26.0336 17.022 26.0336C17.8982 26.0336 18.6086 25.3108 18.6086 24.4192C18.6086 23.5276 17.8982 22.8047 17.022 22.8047Z" fill="#171717"></path>
</g>
<defs>
<clipPath id="clip0_1716_19324">
<rect width="21.4466" height="16.4973" fill="white" transform="translate(8.51562 10.7539)"></rect>
</clipPath>
</defs>
</svg>
