<svg width="28" height="34" viewBox="0 0 28 34" fill="none" xmlns="http://www.w3.org/2000/svg">
<path d="M24.74 3.09C24.38 1.33 22.82 0 20.95 0H5.93C3.8 0 2.06 1.73 2.06 3.87V5.27H1C0.45 5.27 0 5.72 0 6.27C0 6.82 0.45 7.27 1 7.27H2.06V11.7H1C0.45 11.7 0 12.15 0 12.7C0 13.25 0.45 13.7 1 13.7H2.06V18.13H1C0.45 18.13 0 18.58 0 19.13C0 19.68 0.45 20.13 1 20.13H2.06V24.56H1C0.45 24.56 0 25.01 0 25.56C0 26.11 0.45 26.56 1 26.56H2.06V27.02C2.06 28.93 3.46 30.51 5.28 30.82C5.52 32.57 7.08 33.92 8.97 33.92H24.26C26.32 33.92 27.99 32.32 27.99 30.34V6.62C27.99 4.81 26.57 3.32 24.74 3.09ZM4.06 26.56H5.12C5.67 26.56 6.12 26.11 6.12 25.56C6.12 25.01 5.67 24.56 5.12 24.56H4.06V20.13H5.12C5.67 20.13 6.12 19.68 6.12 19.13C6.12 18.58 5.67 18.13 5.12 18.13H4.06V13.7H5.12C5.67 13.7 6.12 13.25 6.12 12.7C6.12 12.15 5.67 11.7 5.12 11.7H4.06V7.27H5.12C5.67 7.27 6.12 6.82 6.12 6.27C6.12 5.72 5.67 5.27 5.12 5.27H4.06V3.87C4.06 2.84 4.9 2 5.93 2H20.96C21.99 2 22.83 2.84 22.83 3.87V27.03C22.83 28.06 21.99 28.9 20.96 28.9H5.93C4.9 28.9 4.06 28.06 4.06 27.03V26.56ZM25.99 30.35C25.99 31.22 25.21 31.93 24.26 31.93H8.97C8.22 31.93 7.59 31.5 7.35 30.89H20.96C23.09 30.89 24.83 29.16 24.83 27.02V5.13C25.51 5.34 26 5.93 26 6.61V30.34L25.99 30.35Z" fill="#A8A8A8"></path>
<path d="M9.24 9.57H15.04C15.59 9.57 16.04 9.12 16.04 8.57C16.04 8.02 15.59 7.57 15.04 7.57H9.24C8.69 7.57 8.24 8.02 8.24 8.57C8.24 9.12 8.69 9.57 9.24 9.57Z" fill="#A8A8A8"></path>
<path d="M9.24 13.72H18.12C18.67 13.72 19.12 13.27 19.12 12.72C19.12 12.17 18.67 11.72 18.12 11.72H9.24C8.69 11.72 8.24 12.17 8.24 12.72C8.24 13.27 8.69 13.72 9.24 13.72Z" fill="#A8A8A8"></path>
<path d="M18.12 9.68C18.7 9.68 19.18 9.21 19.18 8.62C19.18 8.03 18.71 7.56 18.12 7.56C17.53 7.56 17.06 8.03 17.06 8.62C17.06 9.21 17.53 9.68 18.12 9.68Z" fill="#A8A8A8"></path>
</svg>
