<svg width="49" height="33" viewBox="0 0 49 33" fill="none" xmlns="http://www.w3.org/2000/svg">
<path d="M1 14.1902C0.45 14.1902 0 14.6402 0 15.1902C0 15.7402 0.45 16.1902 1 16.1902H3.22C3.62 20.3602 6.47 24.0602 10.78 26.5802C10.66 26.7402 10.58 26.9402 10.58 27.1502V29.1402C10.58 31.8502 19.54 32.9702 24.34 32.9702C29.14 32.9702 38.1 31.8502 38.1 29.1402V26.7902C38.1 26.6502 38.07 26.5202 38.02 26.4002C42.18 23.8902 44.91 20.2602 45.31 16.1902H47.53C48.08 16.1902 48.53 15.7402 48.53 15.1902C48.53 14.6402 48.08 14.1902 47.53 14.1902H1ZM36.1 28.9002C35.23 29.5902 30.65 30.9702 24.34 30.9702C18.03 30.9702 13.45 29.5802 12.58 28.9002V27.5202C15.93 29.0902 19.94 30.0002 24.26 30.0002C28.58 30.0002 32.72 29.0602 36.1 27.4502V28.9002ZM24.26 28.0002C14.22 28.0002 5.99 22.7902 5.22 16.1902H43.3C42.53 22.7902 34.3 28.0002 24.26 28.0002Z" fill="#A8A8A8"></path>
<path d="M16.46 22.1302C17.01 22.1302 17.46 21.6802 17.46 21.1302V19.6702C17.46 19.1202 17.01 18.6702 16.46 18.6702C15.91 18.6702 15.46 19.1202 15.46 19.6702V21.1302C15.46 21.6802 15.91 22.1302 16.46 22.1302Z" fill="#A8A8A8"></path>
<path d="M32.21 22.1302C32.76 22.1302 33.21 21.6802 33.21 21.1302V19.6702C33.21 19.1202 32.76 18.6702 32.21 18.6702C31.66 18.6702 31.21 19.1202 31.21 19.6702V21.1302C31.21 21.6802 31.66 22.1302 32.21 22.1302Z" fill="#A8A8A8"></path>
<path d="M24.34 23.9102C25.78 23.9102 27.11 23.2002 27.91 22.0202C28.22 21.5602 28.1 20.9402 27.64 20.6302C27.18 20.3202 26.56 20.4402 26.25 20.9002C25.82 21.5302 25.11 21.9102 24.33 21.9102C23.55 21.9102 22.84 21.5302 22.41 20.9002C22.1 20.4402 21.48 20.3202 21.02 20.6302C20.56 20.9402 20.44 21.5602 20.75 22.0202C21.55 23.2002 22.88 23.9102 24.32 23.9102H24.34Z" fill="#A8A8A8"></path>
<path d="M4.19 13.3702C4.32 13.4202 4.45 13.4502 4.58 13.4502C4.97 13.4502 5.34 13.2202 5.5 12.8402C6.21 11.1502 7.86 10.0602 9.64 10.0602C9.68 10.0602 9.81 10.0802 9.85 10.0802C10.27 10.0902 10.65 9.85023 10.8 9.46023C11.95 6.68023 14.63 4.89023 17.63 4.89023C18.46 4.89023 19.29 5.04023 20.1 5.32023C20.6 5.50023 21.15 5.26023 21.36 4.77023C21.82 3.69023 22.87 2.99023 24.05 2.99023C25.23 2.99023 26.38 3.78023 26.79 4.95023C26.88 5.20023 27.07 5.41023 27.31 5.53023C27.55 5.64023 27.83 5.65023 28.09 5.56023C30.84 4.53023 33.92 5.58023 35.49 7.96023C35.79 8.42023 36.42 8.55023 36.88 8.24023C36.88 8.24023 36.88 8.23023 36.9 8.22023C37.56 7.84023 38.31 7.63023 39.07 7.63023C41.45 7.63023 43.39 9.57023 43.39 11.9502C43.39 12.5002 43.84 12.9502 44.39 12.9502C44.94 12.9502 45.39 12.5002 45.39 11.9502C45.39 8.46023 42.55 5.63023 39.07 5.63023C38.23 5.63023 37.39 5.80023 36.62 6.13023C35.06 4.25023 32.76 3.14023 30.29 3.14023C29.61 3.14023 28.94 3.23023 28.27 3.40023C27.4 1.93023 25.8 0.990234 24.05 0.990234C22.3 0.990234 20.85 1.83023 19.95 3.19023C19.19 2.99023 18.41 2.89023 17.64 2.89023C14.06 2.89023 10.83 4.90023 9.25 8.07023C6.8 8.24023 4.64 9.76023 3.67 12.0502C3.45 12.5602 3.69 13.1502 4.2 13.3602L4.19 13.3702Z" fill="#A8A8A8"></path>
</svg>
