<svg width="41" height="41" viewBox="0 0 41 41" fill="none" xmlns="http://www.w3.org/2000/svg">
<circle cx="20.1353" cy="20.1353" r="20.1353" fill="black"></circle>
<path d="M23.9548 22.7078C23.9966 22.6958 24.0436 22.692 24.0803 22.6712C24.6808 22.3311 25.1699 21.8848 25.4228 21.2355C25.6075 20.7614 25.7575 20.2733 25.9435 19.7998C26.1945 19.1582 26.4641 18.5235 26.728 17.8869C26.8612 17.5651 27.0846 17.3337 27.4482 17.2863C27.8337 17.2364 28.1896 17.3224 28.4644 17.6075C28.5667 17.7137 28.6272 17.6998 28.7302 17.6157C29.0359 17.3666 29.3551 17.1321 29.7497 17.0353C30.2883 16.9032 30.7813 16.9626 31.1655 17.4039C31.3696 17.6378 31.477 17.916 31.5195 18.2175C31.6598 19.217 31.3902 20.1456 31.013 21.0572C30.7903 21.5952 30.493 22.0915 30.1603 22.5688C30.1352 22.6042 30.1191 22.6459 30.0991 22.6845C30.1094 22.6971 30.1197 22.7091 30.1307 22.7217C30.2291 22.6693 30.3347 22.6263 30.4254 22.5631C30.838 22.2799 31.2473 21.9815 31.4732 21.5269C31.6399 21.1919 31.7622 20.8322 31.8793 20.4763C32.1631 19.6127 32.501 18.7713 32.927 17.9659C33.0519 17.7301 33.1871 17.5 33.4477 17.3755C33.9072 17.1561 34.5521 17.2971 34.8173 17.677C34.8964 17.7908 34.9267 17.9141 34.8758 18.0418C34.7696 18.3079 34.648 18.5684 34.5425 18.8345C34.2593 19.5514 33.9658 20.2645 33.7103 20.9902C33.6067 21.2842 33.5829 21.6066 33.5417 21.9183C33.5314 21.9935 33.5764 22.125 33.6311 22.1465C33.7 22.1737 33.8306 22.1433 33.8892 22.0896C34.1595 21.843 34.4227 21.587 34.6718 21.319C34.8295 21.1489 34.9486 20.9447 35.103 20.7715C35.1687 20.6982 35.2736 20.64 35.3708 20.6166C35.5001 20.5856 35.6192 20.6394 35.6951 20.7582C35.7672 20.8714 35.7395 20.9782 35.6726 21.0825C35.3225 21.63 34.9531 22.1642 34.5161 22.649C34.1692 23.0347 33.7985 23.3963 33.3621 23.6864C33.05 23.8938 32.7153 24.0367 32.3298 24.0379C31.7351 24.0398 31.4828 23.6422 31.4153 23.2022C31.4005 23.1055 31.4005 23.0062 31.3869 22.9095C31.3811 22.8665 31.3689 22.8046 31.34 22.7907C31.3097 22.7761 31.2492 22.8001 31.2132 22.8235C30.9847 22.9721 30.7646 23.1339 30.5316 23.2755C29.9221 23.6454 29.2695 23.921 28.5539 23.9981C28.1632 24.0398 27.7635 24.024 27.3697 24.0025C27.1463 23.9905 26.9681 23.8477 26.8258 23.6763C26.8065 23.6529 26.7917 23.6251 26.7698 23.6055C26.7357 23.5758 26.6965 23.5518 26.6598 23.5252C26.634 23.5619 26.5974 23.5954 26.5845 23.6359C26.5021 23.897 26.4172 24.1574 26.3476 24.4217C26.1571 25.1436 25.9724 25.8674 25.7877 26.5913C25.7201 26.8562 25.5554 26.9794 25.2761 26.9959C24.7805 27.025 24.2232 26.6412 24.1067 26.1791C24.0487 25.9503 24.0983 25.7284 24.1575 25.5103C24.3596 24.7643 24.5675 24.0202 24.7734 23.2749C24.7779 23.2585 24.7914 23.242 24.7895 23.2269C24.7837 23.1794 24.7728 23.1327 24.7638 23.0859C24.72 23.0966 24.6711 23.0992 24.6331 23.1207C24.4664 23.2129 24.3055 23.3154 24.1382 23.4058C23.6008 23.6959 23.0409 23.9355 22.4263 23.9943C22.0478 24.031 21.663 24.0221 21.282 24.0114C20.9917 24.0032 20.7845 23.8299 20.6146 23.61C20.5882 23.5752 20.5335 23.524 20.5116 23.5316C20.4723 23.5461 20.4305 23.5948 20.4189 23.6371C20.1608 24.5803 19.8976 25.5223 19.655 26.4693C19.5436 26.9042 19.384 27.0357 18.9168 26.9921C18.5029 26.9535 18.0376 26.5837 17.9623 26.188C17.9256 25.997 17.9385 25.784 17.9855 25.5943C18.1561 24.9072 18.3504 24.2257 18.5358 23.5417C18.5557 23.4671 18.5776 23.3931 18.5918 23.3179C18.5963 23.2926 18.5873 23.2471 18.5712 23.2395C18.5467 23.2281 18.501 23.2319 18.4798 23.2477C18.3517 23.3432 18.2294 23.4462 18.102 23.5429C17.7995 23.7724 17.4777 23.9665 17.0909 24.024C16.605 24.0967 16.2234 23.9482 16.0284 23.4702C15.9337 23.237 15.8359 23.2186 15.6435 23.3919C15.2902 23.7098 14.8918 23.9368 14.4104 24.019C13.6921 24.141 13.1309 23.756 12.8851 23.1535C12.6798 22.6503 12.6714 22.1281 12.7319 21.6022C12.8458 20.609 13.1811 19.6829 13.676 18.8149C14.1008 18.0702 14.682 17.4747 15.5025 17.1384C15.8552 16.9936 16.2234 16.9247 16.5999 17.0044C17.0118 17.091 17.2763 17.354 17.4101 17.7453C17.4256 17.7902 17.4571 17.83 17.4809 17.8717C17.5157 17.8376 17.5614 17.8091 17.5833 17.768C17.9385 17.1144 18.8711 17.1826 19.2617 17.5525C19.4484 17.7295 19.4941 17.9096 19.3937 18.1454C19.18 18.6499 18.9535 19.15 18.743 19.6557C18.5081 20.2209 18.2713 20.7879 18.1503 21.3898C18.1091 21.5933 18.1084 21.8057 18.1033 22.0143C18.0994 22.1541 18.1908 22.2141 18.3176 22.156C18.4141 22.1117 18.501 22.0428 18.5853 21.9764C19.0448 21.6123 19.3074 21.128 19.5069 20.5907C19.8403 19.693 20.2065 18.8061 20.5586 17.9153C20.5631 17.9033 20.5708 17.8926 20.5766 17.8812C20.9093 17.206 21.699 17.0606 22.2654 17.5702C22.275 17.579 22.2847 17.5872 22.2943 17.5961C22.3926 17.6846 22.4936 17.685 22.5975 17.5973C22.9212 17.3242 23.2687 17.0986 23.6973 17.0113C24.5932 16.8293 25.2014 17.3363 25.3469 18.1271C25.502 18.9673 25.3334 19.7739 25.0495 20.5648C24.7979 21.2659 24.4671 21.9271 24.0236 22.5315C23.9895 22.5776 23.9657 22.6313 23.9368 22.6813C23.9438 22.6901 23.9509 22.699 23.9574 22.7085L23.9548 22.7078ZM27.3272 22.3703C27.3336 22.4897 27.3272 22.5814 27.3459 22.668C27.3903 22.876 27.4913 22.9165 27.6509 22.773C27.8292 22.6124 28.0068 22.4423 28.1452 22.2489C28.7843 21.36 29.2142 20.3758 29.4742 19.3207C29.5495 19.0147 29.6196 18.7049 29.5598 18.3863C29.5212 18.1802 29.4073 18.1341 29.2483 18.2795C29.0674 18.4445 28.8918 18.6202 28.745 18.8143C28.2289 19.4964 27.8832 20.2639 27.62 21.0686C27.4778 21.5023 27.3491 21.9404 27.3272 22.3715V22.3703ZM16.7382 18.6417C16.7311 18.5835 16.7266 18.4805 16.7041 18.3812C16.6546 18.16 16.5194 18.11 16.3527 18.2662C16.2028 18.4065 16.0592 18.562 15.9473 18.7327C15.442 19.5034 15.0849 20.3391 14.8544 21.2267C14.7392 21.6717 14.6775 22.1237 14.7251 22.5833C14.7328 22.6592 14.7785 22.7666 14.8371 22.7919C14.8937 22.8159 15.0057 22.7717 15.0643 22.7236C15.1801 22.6282 15.2869 22.5182 15.379 22.3993C15.8082 21.8456 16.0831 21.2127 16.3263 20.5667C16.5548 19.9604 16.7106 19.3371 16.7369 18.6417H16.7382ZM21.1642 22.4847C21.1726 22.5409 21.1777 22.6225 21.1983 22.7009C21.2408 22.8608 21.3244 22.9007 21.4499 22.7944C21.6289 22.6415 21.8104 22.4803 21.9468 22.2919C22.5865 21.4094 23.0351 20.4371 23.2919 19.3826C23.3698 19.0634 23.4554 18.7422 23.4032 18.4097C23.3923 18.3402 23.353 18.2384 23.3028 18.2213C23.2436 18.2017 23.1445 18.2415 23.0859 18.2852C22.8053 18.4944 22.6078 18.7776 22.4153 19.0615C21.9828 19.6993 21.6848 20.3985 21.448 21.1249C21.3058 21.5598 21.1886 22.0011 21.1648 22.4853L21.1642 22.4847Z" fill="#FDFDFD"></path>
<path d="M10.0269 14.2456C10.8874 14.2519 11.7073 14.4068 12.468 14.8101C12.9855 15.0845 13.4128 15.4517 13.6632 15.9878C13.7945 16.2692 13.8266 16.5675 13.8163 16.8748C13.7784 18.0095 13.1361 18.7903 12.255 19.4224C11.735 19.7954 11.1467 20.0464 10.5437 20.262C10.3101 20.3454 10.3081 20.3037 10.3255 20.5711C10.3776 21.3727 10.516 22.1566 10.8288 22.9026C11.0656 23.4683 11.3907 23.9791 11.9023 24.3458C12.6849 24.9065 13.5177 24.8952 14.3737 24.5241C14.505 24.4672 14.6311 24.3983 14.7637 24.3445C14.9343 24.2756 15.0874 24.3275 15.1833 24.476C15.2593 24.5936 15.2374 24.7618 15.1112 24.8718C14.3801 25.5115 13.5769 26.0337 12.5961 26.2107C11.547 26.3997 10.6364 26.1298 9.88981 25.3585C9.38845 24.8408 9.08403 24.22 8.85749 23.5531C8.6863 23.0492 8.60327 22.5277 8.51896 22.0055C8.51188 21.9625 8.47262 21.9252 8.44881 21.8854C8.41856 21.9214 8.37094 21.9537 8.36 21.9947C8.20232 22.589 8.04914 23.1845 7.89597 23.78C7.82324 24.062 7.6823 24.1757 7.38174 24.1947C6.92222 24.2238 6.54958 24.0512 6.24581 23.7225C6.01347 23.4709 5.99417 23.1643 6.04565 22.8532C6.27606 21.4618 6.73429 20.1324 7.22857 18.8162C7.50982 18.0677 7.83933 17.3369 8.14182 16.596C8.26603 16.2919 8.4797 16.106 8.81823 16.1073C9.19988 16.1086 9.58474 16.1092 9.96189 16.1547C10.2805 16.1933 10.3686 16.4089 10.2502 16.7016C9.8853 17.6024 9.52489 18.5045 9.16577 19.4073C9.14775 19.4528 9.1632 19.5103 9.1632 19.5628C9.20889 19.5602 9.26102 19.571 9.29835 19.5527C10.2798 19.0716 11.0534 18.3939 11.4035 17.3388C11.5406 16.9266 11.549 16.4967 11.446 16.0738C11.3546 15.6996 11.1043 15.4499 10.7387 15.3272C9.99021 15.0769 9.26231 15.1679 8.58654 15.5447C7.57868 16.1067 6.91643 16.95 6.603 18.0475C6.5528 18.2226 6.55023 18.4103 6.51354 18.5892C6.46592 18.8238 6.3372 18.9211 6.09328 18.9255C5.59514 18.935 5.15943 18.5981 5.04037 18.0993C4.95155 17.7282 5.01527 17.371 5.17295 17.0259C5.57197 16.1541 6.2368 15.5244 7.05673 15.0396C7.63918 14.695 8.26346 14.4472 8.9373 14.3429C9.29706 14.2873 9.66326 14.2753 10.0269 14.2437V14.2456Z" fill="#FDFDFD"></path>
<path d="M34.6461 16.6194C33.9233 16.6541 33.3042 15.9942 33.3093 15.2836C33.3138 14.6995 33.886 13.9838 34.6937 14.0003C35.3856 14.0142 36.0195 14.6438 35.9995 15.331C35.9789 16.0416 35.3971 16.6497 34.6454 16.62L34.6461 16.6194Z" fill="#FDFDFD"></path>
</svg>
