<svg width="33" height="33" viewBox="0 0 33 33" fill="none" xmlns="http://www.w3.org/2000/svg">
<g opacity="0.7">
<path fill-rule="evenodd" clip-rule="evenodd" d="M0 16.5C0 7.3873 7.3873 0 16.5 0C25.6127 0 33 7.3873 33 16.5C33 25.6127 25.6127 33 16.5 33C7.3873 33 0 25.6127 0 16.5ZM24.9322 12.4253C24.7298 11.6478 24.1334 11.0355 23.3761 10.8277C22.0037 10.45 16.5 10.45 16.5 10.45C16.5 10.45 10.9963 10.45 9.6238 10.8277C8.8665 11.0355 8.2701 11.6478 8.0677 12.4253C7.7 13.8346 7.7 16.775 7.7 16.775C7.7 16.775 7.7 19.7153 8.0677 21.1247C8.2701 21.9022 8.8665 22.5145 9.6238 22.7224C10.9963 23.1 16.5 23.1 16.5 23.1C16.5 23.1 22.0037 23.1 23.3761 22.7224C24.1334 22.5145 24.7298 21.9022 24.9322 21.1247C25.3 19.7153 25.3 16.775 25.3 16.775C25.3 16.775 25.3 13.8346 24.9322 12.4253Z" fill="white"></path>
<path fill-rule="evenodd" clip-rule="evenodd" d="M14.8496 19.7998V14.2998L19.2496 17.0499L14.8496 19.7998Z" fill="white"></path>
</g>
</svg>
