<svg xmlns="http://www.w3.org/2000/svg" fill="none" viewBox="0 0 33 33" height="33" width="33">
<path fill-opacity="0.7" fill="white" d="M0 16.5C0 7.3873 7.3873 0 16.5 0C25.6127 0 33 7.3873 33 16.5C33 25.6127 25.6127 33 16.5 33C7.3873 33 0 25.6127 0 16.5ZM16.0058 13.4114L16.0405 13.9823L15.4634 13.9124C13.3628 13.6444 11.5278 12.7356 9.96967 11.2092L9.20794 10.4519L9.01173 11.0111C8.59624 12.2579 8.86169 13.5745 9.7273 14.4601C10.189 14.9494 10.0851 15.0194 9.28873 14.7281C9.01173 14.6348 8.76936 14.5649 8.74628 14.5999C8.66549 14.6815 8.94248 15.7418 9.16177 16.1612C9.46185 16.7438 10.0735 17.3148 10.7429 17.6527L11.3085 17.9206L10.6391 17.9323C9.99275 17.9323 9.96967 17.9439 10.0389 18.1886C10.2697 18.946 11.1815 19.75 12.1972 20.0995L12.9127 20.3442L12.2895 20.7171C11.3662 21.2531 10.2813 21.556 9.1964 21.5793C8.67703 21.591 8.25 21.6376 8.25 21.6725C8.25 21.789 9.65805 22.4415 10.4775 22.6979C12.9358 23.4552 15.8558 23.129 18.0487 21.8356C19.6067 20.9152 21.1648 19.0858 21.8919 17.3148C22.2844 16.371 22.6768 14.6465 22.6768 13.8192C22.6768 13.2832 22.7114 13.2133 23.3577 12.5725C23.7386 12.1996 24.0964 11.7918 24.1656 11.6753C24.281 11.4539 24.2695 11.4539 23.6809 11.652C22.6998 12.0015 22.5613 11.9549 23.0461 11.4306C23.4039 11.0577 23.8309 10.3819 23.8309 10.1839C23.8309 10.1489 23.6578 10.2072 23.4616 10.312C23.2538 10.4286 22.7922 10.6033 22.4459 10.7082L21.8227 10.9063L21.2572 10.5218C20.9456 10.312 20.507 10.079 20.2761 10.0091C19.6875 9.84596 18.7873 9.86927 18.2564 10.0557C16.8137 10.58 15.902 11.9316 16.0058 13.4114Z" clip-rule="evenodd" fill-rule="evenodd"></path>
</svg>
