<svg width="40" height="25" viewBox="0 0 40 25" fill="none" xmlns="http://www.w3.org/2000/svg">
<path d="M38.8889 24H1.11111C0.496528 24 0 23.4939 0 22.8674C0 22.241 0.496528 21.7348 1.11111 21.7348H38.8889C39.5035 21.7348 40 22.241 40 22.8674C40 23.4939 39.5035 24 38.8889 24Z" fill="#A8A8A8"></path>
<path d="M10.7587 20.3917C10.1441 20.3917 9.64757 19.8856 9.64757 19.2591C9.64757 14.7076 13.2795 11.0055 17.7448 11.0055C18.3594 11.0055 18.8559 11.5116 18.8559 12.138C18.8559 12.7645 18.3594 13.2706 17.7448 13.2706C14.5052 13.2706 11.8698 15.9569 11.8698 19.2591C11.8698 19.8856 11.3733 20.3917 10.7587 20.3917Z" fill="#A8A8A8"></path>
<path d="M23.3333 4.87362V3.39773C23.3333 1.52367 21.8385 0 20 0C18.1615 0 16.6667 1.52367 16.6667 3.39773V4.89839C8.65799 6.63442 2.22222 14.2882 2.22222 22.8692C2.22222 23.4956 2.71875 24.0018 3.33333 24.0018C3.94792 24.0018 4.44444 23.4956 4.44444 22.8692C4.44444 14.3076 11.7483 6.79546 20.0747 6.79546C28.401 6.79546 35.5556 14.3059 35.5556 22.8692C35.5556 23.4956 36.0521 24.0018 36.6667 24.0018C37.2812 24.0018 37.7778 23.4956 37.7778 22.8692C37.7778 14.2475 31.3316 6.56009 23.3333 4.87362ZM20 2.26515C20.6128 2.26515 21.1111 2.77304 21.1111 3.39773C21.1111 4.02242 20.6128 4.53031 20 4.53031C19.3872 4.53031 18.8889 4.02242 18.8889 3.39773C18.8889 2.77304 19.3872 2.26515 20 2.26515Z" fill="#A8A8A8"></path>
</svg>
