<svg width="39" height="38" viewBox="0 0 39 38" fill="none" xmlns="http://www.w3.org/2000/svg">
<circle cx="19.1829" cy="18.972" r="18.972" fill="white" fill-opacity="0.7"></circle>
<path d="M18.9514 18.0536C21.2473 17.9707 23.0721 16.318 23.0856 14.2598L23.0753 12.5023L25.6025 12.4874L25.614 14.4414C25.5814 17.6098 22.543 20.1368 18.9642 20.2273C15.3208 20.2256 12.2271 17.7232 12.1569 14.5208L12.1363 11.0174C12.1342 10.659 12.3894 10.4262 12.7742 10.424L23.0499 10.3634L23.0625 12.5024L15.0062 12.5499C14.8009 12.5511 14.6733 12.6675 14.6744 12.8525L14.6828 14.2746C14.7207 16.3557 16.5909 18.0444 18.9514 18.0536Z" fill="#171717"></path>
<path d="M17.5534 24.0887L16.9199 24.0947L16.9305 27.0423L17.564 27.0362L17.5534 24.0887Z" fill="#171717"></path>
<path d="M12.2864 27.0691L12.2715 22.8906L13.8725 22.8753C15.3286 22.8613 16.1123 23.776 16.1165 24.9431C16.1206 26.1102 15.3114 27.0401 13.8793 27.0538L12.2864 27.0691ZM13.7649 26.5578C14.8912 26.547 15.4928 26.0153 15.4889 24.9491C15.4851 23.8829 14.8397 23.3631 13.7777 23.3733L12.9008 23.3817L12.9121 26.566L13.7649 26.5578Z" fill="#171717"></path>
<path d="M16.8275 23.1107C16.8267 22.9092 17.0031 22.7493 17.2283 22.7471C17.4536 22.745 17.6311 22.9015 17.6318 23.1029C17.6325 23.3044 17.4561 23.4643 17.2309 23.4665C17.0057 23.4686 16.8281 23.3049 16.8275 23.1107Z" fill="#171717"></path>
<path d="M11.2019 24.1268L10.5684 24.1328L10.5789 27.0803L11.2124 27.0743L11.2019 24.1268Z" fill="#171717"></path>
<path d="M5.90357 27.1062L5.88867 22.9277L7.48966 22.9124C8.94583 22.8984 9.72949 23.8131 9.73366 24.9802C9.73782 26.1473 8.92855 27.0772 7.49651 27.0909L5.90357 27.1062ZM7.38211 26.5949C8.50843 26.5841 9.10994 26.0524 9.10614 24.9862C9.10233 23.92 8.45685 23.4002 7.39489 23.4104L6.51797 23.4188L6.52932 26.6031L7.38211 26.5949Z" fill="#171717"></path>
<path d="M10.4681 23.1478C10.4674 22.9463 10.6437 22.7864 10.869 22.7842C11.0942 22.7821 11.2717 22.9386 11.2724 23.1401C11.2731 23.3415 11.0967 23.5014 10.8715 23.5036C10.6463 23.5057 10.4688 23.342 10.4681 23.1478Z" fill="#171717"></path>
<path d="M23.7184 23.9717C22.6649 23.9818 22.0879 24.5273 22.0913 25.4992C22.0948 26.4711 22.6758 27.0055 23.7292 26.9954C24.7827 26.9853 25.3598 26.4398 25.3563 25.4679C25.3448 24.4889 24.7639 23.9617 23.7184 23.9717ZM23.728 26.6498C22.8916 26.6578 22.4801 26.2802 22.4773 25.4883C22.4745 24.6963 22.8833 24.3109 23.7196 24.3028C24.556 24.2948 24.9675 24.6725 24.9703 25.4644C24.9731 26.2563 24.5643 26.6418 23.728 26.6498Z" fill="#171717"></path>
<path d="M27.2966 23.9502C26.2431 23.9603 25.666 24.5058 25.6695 25.4777C25.6729 26.4496 26.2539 26.984 27.3074 26.9739C28.3608 26.9638 28.9379 26.4183 28.9344 25.4464C28.9229 24.4674 28.342 23.9402 27.2966 23.9502ZM27.3061 26.6283C26.4698 26.6364 26.0583 26.2587 26.0554 25.4668C26.0526 24.6749 26.4614 24.2894 27.2977 24.2814C28.1341 24.2734 28.5456 24.651 28.5484 25.4429C28.5512 26.2349 28.1425 26.6203 27.3061 26.6283Z" fill="#171717"></path>
<path d="M19.724 23.0784L22.1731 23.055L22.1719 22.7306L19.3281 22.7578L19.3434 27.0257L19.7381 27.0219L19.7313 25.1259L21.7615 25.1064L21.7603 24.7748L19.7302 24.7942L19.724 23.0784Z" fill="#171717"></path>
<path d="M31.9886 22.7322L31.9943 24.3398C31.7276 24.0611 31.3245 23.9136 30.7931 23.9187C29.7866 23.9283 29.2329 24.4743 29.2365 25.4547C29.24 26.4351 29.7975 26.9705 30.8039 26.9609C31.3273 26.9558 31.7293 26.8006 31.9941 26.5241L32.0276 26.8987L32.3738 26.8954L32.3587 22.6565L31.9886 22.7322ZM30.8107 26.6075C30.0216 26.6151 29.6338 26.2367 29.631 25.4437C29.6281 24.6508 30.0132 24.265 30.8023 24.2574C31.5914 24.2499 31.9792 24.6283 31.9821 25.4212C31.9849 26.2142 31.5998 26.6 30.8107 26.6075Z" fill="#171717"></path>
</svg>
