<svg width="33" height="33" viewBox="0 0 33 33" fill="none" xmlns="http://www.w3.org/2000/svg">
<g opacity="0.7">
<path fill-rule="evenodd" clip-rule="evenodd" d="M0 16.5C0 7.3873 7.3873 0 16.5 0C25.6127 0 33 7.3873 33 16.5C33 25.6127 25.6127 33 16.5 33C7.3873 33 0 25.6127 0 16.5ZM16.5008 7.7C14.1109 7.7 13.8109 7.71045 12.8723 7.75317C11.9354 7.79607 11.2959 7.94439 10.7364 8.162C10.1576 8.38677 9.66664 8.68744 9.1775 9.17677C8.68799 9.6659 8.38732 10.1569 8.16182 10.7355C7.94365 11.2952 7.79515 11.9349 7.75298 12.8713C7.711 13.81 7.7 14.1101 7.7 16.5001C7.7 18.8901 7.71063 19.1891 7.75317 20.1277C7.79625 21.0646 7.94457 21.7041 8.162 22.2636C8.38696 22.8424 8.68763 23.3334 9.17695 23.8225C9.6659 24.312 10.1569 24.6134 10.7353 24.8382C11.2952 25.0558 11.9349 25.2041 12.8715 25.247C13.8102 25.2897 14.11 25.3002 16.4997 25.3002C18.8899 25.3002 19.1889 25.2897 20.1276 25.247C21.0644 25.2041 21.7046 25.0558 22.2645 24.8382C22.8431 24.6134 23.3334 24.312 23.8223 23.8225C24.3118 23.3334 24.6125 22.8424 24.838 22.2638C25.0543 21.7041 25.2028 21.0644 25.2468 20.1279C25.289 19.1893 25.3 18.8901 25.3 16.5001C25.3 14.1101 25.289 13.8102 25.2468 12.8715C25.2028 11.9347 25.0543 11.2952 24.838 10.7357C24.6125 10.1569 24.3118 9.6659 23.8223 9.17677C23.3328 8.68726 22.8433 8.38659 22.264 8.162C21.703 7.94439 21.0631 7.79607 20.1263 7.75317C19.1876 7.71045 18.8888 7.7 16.4981 7.7H16.5008Z" fill="white"></path>
<path fill-rule="evenodd" clip-rule="evenodd" d="M15.7114 9.28585C15.9457 9.28548 16.2071 9.28585 16.5008 9.28585C18.8504 9.28585 19.1289 9.29428 20.0568 9.33645C20.9148 9.37568 21.3805 9.51905 21.6907 9.6395C22.1014 9.79901 22.3941 9.98967 22.702 10.2977C23.01 10.6057 23.2006 10.899 23.3605 11.3097C23.4809 11.6195 23.6245 12.0852 23.6635 12.9432C23.7057 13.8709 23.7149 14.1496 23.7149 16.4981C23.7149 18.8466 23.7057 19.1253 23.6635 20.0529C23.6243 20.911 23.4809 21.3766 23.3605 21.6865C23.201 22.0971 23.01 22.3896 22.702 22.6974C22.394 23.0054 22.1015 23.196 21.6907 23.3555C21.3808 23.4765 20.9148 23.6195 20.0568 23.6588C19.1291 23.7009 18.8504 23.7101 16.5008 23.7101C14.151 23.7101 13.8725 23.7009 12.9449 23.6588C12.0868 23.6192 11.6212 23.4758 11.3108 23.3554C10.9001 23.1959 10.6068 23.0052 10.2988 22.6972C9.99077 22.3892 9.80011 22.0966 9.64024 21.6857C9.51979 21.3759 9.37623 20.9102 9.33718 20.0522C9.29502 19.1245 9.28658 18.8459 9.28658 16.4959C9.28658 14.1459 9.29502 13.8687 9.33718 12.941C9.37642 12.083 9.51979 11.6173 9.64024 11.3071C9.79974 10.8964 9.99077 10.6031 10.2988 10.2951C10.6068 9.98711 10.9001 9.79644 11.3108 9.63657C11.621 9.51557 12.0868 9.37257 12.9449 9.33315C13.7567 9.29648 14.0713 9.28548 15.7114 9.28365V9.28585ZM21.1982 10.747C20.6152 10.747 20.1422 11.2195 20.1422 11.8027C20.1422 12.3857 20.6152 12.8587 21.1982 12.8587C21.7812 12.8587 22.2543 12.3857 22.2543 11.8027C22.2543 11.2197 21.7812 10.747 21.1982 10.747ZM16.5008 11.9809C14.0051 11.9809 11.9816 14.0043 11.9816 16.5001C11.9816 18.9958 14.0051 21.0184 16.5008 21.0184C18.9966 21.0184 21.0193 18.9958 21.0193 16.5001C21.0193 14.0043 18.9966 11.9809 16.5008 11.9809Z" fill="white"></path>
<path fill-rule="evenodd" clip-rule="evenodd" d="M16.5008 13.5667C18.1208 13.5667 19.4342 14.88 19.4342 16.5001C19.4342 18.12 18.1208 19.4335 16.5008 19.4335C14.8807 19.4335 13.5675 18.12 13.5675 16.5001C13.5675 14.88 14.8807 13.5667 16.5008 13.5667Z" fill="white"></path>
</g>
</svg>
