<svg width="51" height="29" viewBox="0 0 51 29" fill="none" xmlns="http://www.w3.org/2000/svg">
<path d="M50.7507 18.1029C50.5607 17.8555 50.2807 17.7157 49.9807 17.7157H48.0307C48.3307 17.0381 48.5007 16.2959 48.5007 15.5215C48.5007 12.6927 46.3607 10.4017 43.7407 10.4017C43.2707 10.4017 42.8107 10.477 42.3607 10.6168C41.5807 8.33658 39.5507 6.75547 37.2107 6.75547C35.9907 6.75547 34.8307 7.18571 33.8807 7.97088C32.8607 6.46507 31.2307 5.54006 29.4407 5.54006C28.8607 5.54006 28.2907 5.64762 27.7607 5.83047C26.7307 4.53977 21.8807 -0.977974 14.6307 0.151389C5.06068 1.64645 5.85068 11.7462 5.86068 11.843C5.86068 11.8537 5.86068 11.8645 5.87068 11.886C3.62068 13.9619 2.62068 16.4895 2.25068 17.7049H1.00068C0.730684 17.7049 0.470684 17.8232 0.280684 18.0383C0.0906837 18.2535 -0.00931629 18.5331 0.000683708 18.8235C0.170684 23.1259 3.02068 24.3413 4.53068 24.3843H8.99068C9.43068 27.5035 11.6007 28.4285 12.8007 28.4607H38.5807C40.7207 28.4607 42.0807 25.6642 42.5807 24.3843H45.9807C49.9407 24.3843 50.9207 19.2 50.9607 18.9849C51.0207 18.6729 50.9407 18.3395 50.7507 18.0921V18.1029ZM38.5807 26.3203H12.8207C12.7607 26.3203 11.4807 26.2558 11.0407 24.5349H40.2807C39.7707 25.4921 39.1207 26.3203 38.5707 26.3203H38.5807ZM32.7207 10.122C32.8507 10.4877 33.1507 10.7459 33.5107 10.7997C33.8707 10.8534 34.2307 10.7029 34.4507 10.3909C35.1307 9.44443 36.1407 8.89588 37.2207 8.89588C39.0007 8.89588 40.4907 10.3372 40.6907 12.2517C40.7307 12.6282 40.9407 12.9508 41.2607 13.1014C41.5807 13.252 41.9407 13.2305 42.2307 13.0261C42.6807 12.7035 43.2107 12.5314 43.7407 12.5314C45.2607 12.5314 46.5007 13.8651 46.5007 15.5C46.5007 16.3174 46.2007 17.0811 45.6507 17.6511C45.6407 17.6619 45.6307 17.6834 45.6207 17.6942H35.7707C34.9107 16.8014 31.3107 13.2412 25.8907 10.8534C25.9707 10.7459 26.0307 10.6168 26.0707 10.477C26.4907 8.83135 27.8707 7.68047 29.4507 7.68047C30.9107 7.68047 32.1907 8.63774 32.7207 10.1113V10.122ZM14.9207 2.28104C20.5907 1.39907 24.6807 5.4325 25.9607 6.8953C25.1007 7.65896 24.4407 8.69152 24.1407 9.91769C24.1207 9.99298 24.1307 10.0683 24.1307 10.1543C20.7807 8.93891 16.8707 8.23978 12.5607 8.82059C10.6807 9.06798 9.15068 9.65955 7.86068 10.4232C7.98068 8.11071 8.96068 3.2168 14.9307 2.28104H14.9207ZM12.8007 10.9502C21.9607 9.71333 29.4207 14.8976 32.7107 17.7049H4.37068C5.12068 15.6936 7.29068 11.6924 12.8007 10.9502ZM45.9807 22.2331H4.55068C4.46068 22.2331 2.67068 22.1471 2.14068 19.8561H48.6007C48.1807 20.9102 47.3707 22.2331 45.9707 22.2331H45.9807Z" fill="#A8A8A8"></path>
</svg>
