<svg width="38" height="38" viewBox="0 0 38 38" fill="none" xmlns="http://www.w3.org/2000/svg">
<circle cx="18.972" cy="19.0345" r="18.8157" fill="white" fill-opacity="0.7"></circle>
<path fill-rule="evenodd" clip-rule="evenodd" d="M28.1987 17.5702C28.1534 17.813 28.0854 18.0952 27.9916 18.4037C27.8978 18.7122 27.7781 19.0404 27.6357 19.3718C27.4804 19.7066 27.3219 20.0183 27.1601 20.2973C27.0016 20.5762 26.843 20.8158 26.691 21.0094C26.5422 21.1998 26.403 21.3376 26.2801 21.4262C26.1863 21.4918 26.1345 21.4984 26.1183 21.4984C26.1086 21.4984 26.1021 21.4984 26.0957 21.4951C26.0795 21.4886 26.0277 21.4525 26.0051 21.2884C25.9824 21.1374 25.9954 20.9372 26.0374 20.6944C26.0827 20.445 26.1507 20.1627 26.2445 19.8543C26.3383 19.5458 26.458 19.2209 26.6004 18.8861C26.7427 18.5547 26.898 18.2429 27.0663 17.964C27.2313 17.685 27.3931 17.4487 27.5451 17.2584C27.6939 17.0746 27.8298 16.9368 27.956 16.8482C28.0498 16.7825 28.1016 16.776 28.1178 16.776C28.1275 16.776 28.134 16.776 28.1404 16.7793C28.1566 16.7858 28.2084 16.8219 28.231 16.986C28.2504 17.137 28.2407 17.3339 28.1987 17.5734M22.0029 17.5734C21.9576 17.8163 21.8897 18.0985 21.7958 18.407C21.702 18.7188 21.5823 19.0437 21.44 19.3751C21.2847 19.7099 21.1261 20.0216 20.9644 20.3006C20.8058 20.5795 20.6473 20.8191 20.4952 21.0127C20.3464 21.203 20.2073 21.3409 20.0843 21.4295C19.9905 21.4951 19.942 21.5017 19.9226 21.5017C19.9129 21.5017 19.9064 21.5017 19.8999 21.4984C19.8837 21.4918 19.832 21.4557 19.8093 21.2917C19.7867 21.1407 19.7996 20.9405 19.8417 20.6977C19.887 20.4482 19.9549 20.166 20.0487 19.8575C20.1426 19.549 20.2623 19.2242 20.4046 18.8894C20.547 18.5547 20.7055 18.2462 20.8705 17.9672C21.0355 17.6883 21.1973 17.452 21.3494 17.2617C21.4982 17.0779 21.6373 16.9401 21.7603 16.8515C21.8541 16.7858 21.9059 16.7793 21.922 16.7793C21.9317 16.7793 21.9382 16.7793 21.9447 16.7825C21.9609 16.7891 22.0126 16.8252 22.0353 16.9893C22.0547 17.1402 22.045 17.3372 22.0029 17.5767M15.2895 17.5144C15.2636 17.7605 15.2086 18.0427 15.131 18.3545C15.0533 18.663 14.9465 18.9879 14.8139 19.3226C14.6812 19.6541 14.5421 19.9658 14.3965 20.2481C14.2542 20.5237 14.1118 20.76 13.9695 20.9504C13.8303 21.1341 13.7009 21.272 13.5844 21.3573C13.4971 21.4229 13.4486 21.4295 13.4324 21.4295C13.4259 21.4295 13.4194 21.4295 13.4097 21.4262C13.3936 21.4196 13.3386 21.3835 13.3094 21.2129C13.2836 21.0587 13.2803 20.8585 13.303 20.6189C13.3256 20.376 13.3741 20.0971 13.4518 19.7886C13.5294 19.4801 13.6362 19.1552 13.7689 18.8205C13.9015 18.4858 14.0439 18.174 14.1862 17.8951C14.3286 17.6194 14.4709 17.3798 14.6133 17.1862C14.7492 16.9991 14.8786 16.858 14.9983 16.7727C15.0857 16.7071 15.1342 16.7005 15.1504 16.7005C15.1568 16.7005 15.1633 16.7005 15.1698 16.7038C15.186 16.7103 15.2442 16.7497 15.2798 16.9204C15.3121 17.0713 15.3121 17.2715 15.2863 17.5144M28.8619 15.46C29.1855 15.46 29.4637 15.5617 29.6902 15.7586C29.907 15.9523 30.0655 16.2246 30.1528 16.5725C30.2402 16.9105 30.2564 17.3207 30.2046 17.7868C30.1528 18.2495 30.0202 18.7778 29.8067 19.3554C29.6061 19.9035 29.3763 20.3826 29.124 20.7863C29.001 20.9799 28.8749 21.1637 28.7487 21.3343C28.7325 21.3573 28.7552 21.3835 28.781 21.3704C28.8554 21.331 28.9299 21.2851 29.001 21.2359C29.166 21.1276 29.3278 21.0094 29.4766 20.8847C29.9005 20.5369 30.2046 20.0676 30.3534 19.5425C30.444 19.2242 30.5411 18.9091 30.6479 18.6006C30.8258 18.0887 31.0135 17.6128 31.2076 17.1829C31.4017 16.753 31.5635 16.4347 31.6864 16.2279C31.8288 15.9949 32.0261 15.8505 32.2752 15.7947C32.5082 15.7455 32.7314 15.7488 32.9385 15.8046C33.1488 15.8637 33.3203 15.9687 33.4497 16.1196C33.5888 16.2837 33.6212 16.4741 33.5371 16.6644C33.5112 16.73 33.4465 16.881 33.3429 17.1107C33.2394 17.3437 33.1229 17.6161 32.987 17.9443C32.8576 18.2593 32.7217 18.6006 32.5891 18.9551C32.4597 19.3062 32.3561 19.6311 32.285 19.9264C32.217 20.212 32.1879 20.4515 32.2041 20.6353C32.2202 20.8092 32.285 20.8092 32.3205 20.8092C32.3723 20.8092 32.4597 20.7863 32.5988 20.6714C32.7314 20.5598 32.8738 20.4253 33.0194 20.2678C33.165 20.1102 33.3041 19.9429 33.4335 19.7689C33.55 19.6081 33.6535 19.467 33.7344 19.3489C33.8056 19.2438 33.9188 19.1848 34.045 19.1848C34.1777 19.1848 34.3071 19.2537 34.375 19.3587C34.4397 19.4604 34.4397 19.5851 34.3685 19.6934C34.2812 19.8313 34.1291 20.0643 33.9026 20.4023C33.6794 20.737 33.4076 21.0849 33.1035 21.4328C32.7929 21.7839 32.4532 22.099 32.0941 22.3615C31.7155 22.6405 31.3338 22.7816 30.9585 22.7816C30.6187 22.7816 30.3664 22.6634 30.2078 22.4271C30.0622 22.2138 29.9878 21.925 29.9878 21.5706V21.5148C29.9878 21.4722 29.9393 21.4492 29.9069 21.4754C29.8358 21.5345 29.7614 21.5903 29.6869 21.6461C29.2469 21.9775 28.739 22.2598 28.176 22.4862C27.6745 22.6864 27.118 22.7881 26.5292 22.7881H26.4095L26.2898 22.7816C25.8886 22.7816 25.591 22.6536 25.4033 22.4009C25.3709 22.3549 25.3386 22.3123 25.3127 22.2631C25.2901 22.227 25.2351 22.2302 25.2221 22.2729C25.1606 22.4764 25.1056 22.6766 25.0506 22.8636C24.9374 23.2705 24.8371 23.6217 24.753 23.9367C24.6656 24.2551 24.5912 24.5439 24.5297 24.7998C24.4715 25.046 24.4294 25.2429 24.4068 25.3906V25.3971C24.3518 25.6761 24.1641 25.7745 24.0186 25.8073C23.9538 25.8205 23.8859 25.8303 23.818 25.8303C23.695 25.8303 23.5624 25.8041 23.4265 25.7581C23.2227 25.6859 23.0382 25.5579 22.8797 25.3807C22.7147 25.1969 22.6306 24.9672 22.6306 24.6981C22.6306 24.6423 22.6435 24.5242 22.7503 24.0844C22.8279 23.7595 22.9347 23.3559 23.0674 22.8833C23.1579 22.5617 23.2582 22.2138 23.3715 21.843C23.3844 21.797 23.3359 21.7609 23.2971 21.7872C22.9056 22.0596 22.4656 22.2926 21.9835 22.4829C21.4788 22.6831 20.9255 22.7848 20.3367 22.7848C20.2558 22.7848 20.1749 22.7848 20.0973 22.7783C19.6961 22.7783 19.3984 22.6503 19.2108 22.3976C19.1784 22.3517 19.1461 22.309 19.1202 22.2598C19.0975 22.2237 19.0425 22.2302 19.0296 22.2696C18.9681 22.4731 18.9099 22.6733 18.8581 22.8603C18.7416 23.2673 18.6446 23.6184 18.5605 23.9335C18.4731 24.2518 18.3987 24.5406 18.3372 24.7966C18.279 25.0427 18.2369 25.2396 18.2143 25.3873V25.3938C18.1593 25.6728 17.9716 25.7712 17.826 25.8041C17.7613 25.8172 17.6934 25.827 17.6254 25.827C17.5025 25.827 17.3698 25.8008 17.234 25.7548C17.0301 25.6826 16.8457 25.5546 16.6872 25.3774C16.5222 25.1936 16.4381 24.9639 16.4381 24.6948C16.4381 24.639 16.451 24.5209 16.5578 24.0811C16.6386 23.753 16.7422 23.3493 16.8748 22.88C16.9525 22.6011 17.0398 22.3024 17.1337 21.9841C17.1466 21.9349 17.0884 21.8988 17.0528 21.9349C16.8878 22.0858 16.7195 22.2302 16.5448 22.3582C16.1728 22.6372 15.791 22.7783 15.4157 22.7783C15.076 22.7783 14.8236 22.6601 14.6651 22.4239C14.6004 22.3287 14.5518 22.2204 14.513 22.0957C14.4806 21.9874 14.3415 21.9513 14.2639 22.0366C14.1539 22.1515 14.0309 22.2598 13.9015 22.3517C13.7333 22.4731 13.5424 22.5748 13.3386 22.6536C13.1283 22.7356 12.8985 22.7783 12.6591 22.7783C12.3356 22.7783 12.0509 22.6798 11.8147 22.4796C11.585 22.2893 11.4167 22.0169 11.31 21.6756C11.2064 21.3442 11.1676 20.9339 11.1967 20.4614C11.2259 19.9921 11.3294 19.467 11.5106 18.8993C11.8923 17.7178 12.3906 16.8416 12.9924 16.2936C13.6039 15.7324 14.2251 15.4502 14.8365 15.4502C15.0954 15.4502 15.3154 15.5027 15.4869 15.6077C15.6583 15.7094 15.7877 15.8472 15.8751 16.0113C15.9333 16.1229 15.9786 16.2411 16.0045 16.369C16.0077 16.392 16.0401 16.3953 16.0498 16.3756C16.0822 16.3198 16.1113 16.2673 16.1372 16.2214C16.2795 15.9884 16.4736 15.844 16.7163 15.7915C16.946 15.7422 17.1693 15.7455 17.3796 15.8013C17.5963 15.8604 17.771 15.9654 17.9004 16.1163C18.0396 16.2804 18.0719 16.4708 17.9878 16.6611C17.9619 16.7268 17.9004 16.8744 17.7969 17.1074C17.6934 17.3372 17.5737 17.6194 17.441 17.941C17.3084 18.2593 17.1757 18.6006 17.0431 18.9518C16.9137 19.3029 16.8101 19.6278 16.7389 19.9232C16.671 20.2087 16.6419 20.4482 16.6581 20.632C16.6742 20.806 16.7389 20.806 16.7745 20.806C16.8263 20.806 16.9137 20.783 17.0528 20.6681C17.1304 20.6025 17.2081 20.5336 17.289 20.4515C17.6028 20.143 17.8131 19.8083 17.9555 19.3915C18.1431 18.8369 18.3405 18.2889 18.5411 17.7638C18.7578 17.2026 18.9681 16.7005 19.1655 16.2673C19.269 16.0441 19.434 15.8932 19.654 15.821C19.8611 15.7521 20.0714 15.7389 20.2785 15.7783C20.4855 15.8177 20.6667 15.903 20.8188 16.0277C20.8867 16.0835 20.9385 16.1426 20.9805 16.205C20.9902 16.2214 21.0032 16.2246 21.0194 16.2082C21.1973 16.0409 21.3947 15.8866 21.6082 15.7521C21.9188 15.5519 22.2715 15.4502 22.6532 15.4502C22.9768 15.4502 23.255 15.5519 23.4815 15.7488C23.7015 15.9424 23.8568 16.2148 23.9441 16.5627C24.0315 16.9007 24.0477 17.3109 23.9959 17.7769C23.9441 18.2396 23.8115 18.768 23.598 19.3456C23.3974 19.8936 23.1677 20.3728 22.9153 20.7764C22.7923 20.97 22.6662 21.1538 22.54 21.3245C22.5238 21.3474 22.5497 21.3737 22.5723 21.3606C22.6468 21.3212 22.7212 21.2752 22.7923 21.226C22.9121 21.1473 23.0253 21.0652 23.1385 20.9799C23.5624 20.655 23.8762 20.2087 24.0444 19.7L24.1091 19.5031C24.3065 18.9091 24.5168 18.3217 24.7336 17.7605C24.9503 17.1993 25.1606 16.6939 25.3612 16.264C25.4648 16.0409 25.6298 15.8899 25.8498 15.8177C26.0568 15.7488 26.2671 15.7357 26.4742 15.775C26.6813 15.8144 26.8625 15.8998 27.0145 16.0245C27.0825 16.0802 27.1342 16.1393 27.1763 16.205C27.186 16.2214 27.1989 16.2246 27.2151 16.2082C27.3931 16.0409 27.5904 15.8866 27.804 15.7521C28.1145 15.5519 28.4672 15.4502 28.849 15.4502L28.8619 15.46ZM8.56314 12.664C9.02903 12.664 9.49493 12.7197 9.94788 12.8248C10.4041 12.9331 10.8214 13.0971 11.1806 13.3137C11.5462 13.5336 11.8438 13.8093 12.0703 14.1309C12.3 14.4591 12.4165 14.8463 12.4165 15.2795C12.4165 15.7455 12.3129 16.182 12.1123 16.5791C11.9118 16.9696 11.6367 17.3273 11.2938 17.6424C10.9541 17.9541 10.5497 18.2298 10.0967 18.4595C9.7214 18.6499 9.32345 18.8107 8.90932 18.9419C8.88344 18.9518 8.87373 18.9649 8.87373 18.9912C8.88344 19.1979 8.89638 19.4014 8.91903 19.5983C8.94167 19.8247 8.97403 20.0413 9.01285 20.2513C9.04844 20.4548 9.09374 20.655 9.1455 20.8421C9.18433 20.9865 9.22962 21.1308 9.27815 21.2654C9.30727 21.3507 9.33963 21.4361 9.37198 21.5148C9.43669 21.6723 9.50787 21.8266 9.58552 21.9677C9.65993 22.1055 9.74081 22.2368 9.82493 22.3582C9.90905 22.4764 9.99641 22.5879 10.087 22.6864C10.1776 22.7848 10.2714 22.8767 10.3717 22.9555C10.4655 23.0343 10.5691 23.1065 10.6694 23.1655C10.7697 23.2246 10.8732 23.2771 10.9832 23.3198C11.09 23.3624 11.1967 23.3953 11.3067 23.4215C11.4167 23.4478 11.53 23.4609 11.6465 23.4707C11.7597 23.4773 11.8794 23.4773 11.9991 23.4675C12.1188 23.4576 12.245 23.4379 12.3679 23.4084C12.4941 23.3788 12.6203 23.3395 12.7497 23.2935C12.8791 23.2443 13.0118 23.1852 13.1412 23.1163C13.1897 23.09 13.2415 23.0638 13.29 23.0343C13.4518 22.9391 13.6589 22.985 13.7689 23.136C13.8789 23.287 13.853 23.497 13.7139 23.6217C13.6459 23.6808 13.5747 23.7398 13.5068 23.7989C13.3386 23.9367 13.1703 24.0614 13.0086 24.1763C12.8533 24.2846 12.6947 24.3831 12.5394 24.4717C12.4618 24.5176 12.3777 24.5603 12.2968 24.6029C12.135 24.685 11.9732 24.7572 11.8147 24.8162C11.6562 24.8753 11.4944 24.9245 11.3391 24.9639C11.1838 25 11.0253 25.0296 10.8732 25.046C10.7632 25.0558 10.6532 25.0624 10.5464 25.0624C10.5044 25.0624 10.4591 25.0624 10.417 25.0624C10.2682 25.0558 10.1226 25.0394 9.977 25.0099C9.90582 24.9967 9.83464 24.9803 9.7667 24.9606C9.69875 24.941 9.63081 24.9213 9.55963 24.895C9.42698 24.8458 9.29433 24.7867 9.16815 24.7178C9.04521 24.6489 8.92226 24.5701 8.80579 24.4848C8.71196 24.4159 8.62137 24.3371 8.53402 24.2551C8.43048 24.1566 8.32695 24.0483 8.22989 23.9302C8.13606 23.8153 8.04224 23.6906 7.95812 23.5593C7.874 23.4281 7.79311 23.2902 7.7187 23.1458C7.64429 23.0014 7.57634 22.8505 7.51164 22.693C7.44693 22.5387 7.38869 22.3713 7.33693 22.2007C7.28516 22.0333 7.23663 21.8561 7.19457 21.6723C7.15251 21.4886 7.11692 21.3015 7.08457 21.1112C7.05868 20.9438 7.0328 20.7666 7.01662 20.5894C7.01015 20.5369 6.93574 20.527 6.91956 20.5795C6.85485 20.8125 6.79338 21.0357 6.74161 21.2523C6.67367 21.5214 6.6122 21.7675 6.5572 21.9874C6.5022 22.204 6.46337 22.3779 6.44396 22.5026C6.39866 22.7258 6.25307 22.8702 6.01689 22.9161C5.81306 22.9555 5.59629 22.9391 5.37305 22.8669C5.15304 22.7947 4.94921 22.67 4.7745 22.4961C4.59009 22.3123 4.49626 22.0826 4.49626 21.8102C4.49626 21.5903 4.55126 21.2391 4.6645 20.7436C4.7745 20.2579 4.93627 19.6836 5.1401 19.0305C5.34393 18.384 5.59305 17.6752 5.87453 16.9171C6.11719 16.2673 6.39219 15.611 6.68985 14.9677C6.78691 14.7577 6.9875 14.61 7.22045 14.5838C7.74458 14.5214 8.19754 14.5378 8.58578 14.6297C8.81873 14.6855 8.94167 14.9349 8.84461 15.1548C8.59549 15.7094 8.36578 16.2607 8.16195 16.7989C7.99694 17.2354 7.83841 17.6653 7.68635 18.0854C7.6734 18.1281 7.71547 18.1642 7.75429 18.1477C7.95488 18.0559 8.15224 17.9476 8.34313 17.8229C8.6602 17.6194 8.94815 17.3765 9.20051 17.1042C9.44963 16.8285 9.65669 16.52 9.81199 16.1853C9.96406 15.8538 10.0417 15.4895 10.0417 15.1089C10.0417 14.6199 9.90582 14.2556 9.63728 14.0324C9.36551 13.806 8.98373 13.6911 8.50166 13.6911C7.98724 13.6911 7.51811 13.8126 7.10398 14.0521C6.68014 14.2983 6.31454 14.6002 6.01365 14.9513C5.71276 15.3058 5.47658 15.6832 5.30834 16.0737C5.14334 16.4609 5.05922 16.8022 5.05922 17.0845C5.05922 17.2879 4.95245 17.4323 4.75833 17.498C4.58685 17.5537 4.3992 17.5439 4.20508 17.4717C4.02066 17.4028 3.84595 17.265 3.69389 17.0681C3.53859 16.8679 3.46094 16.5955 3.46094 16.2607C3.46094 15.9687 3.57094 15.6241 3.80065 15.2073C4.02389 14.8004 4.3539 14.4066 4.77774 14.0324C5.20481 13.6583 5.73865 13.3367 6.37602 13.0709C7.01339 12.8051 7.75105 12.6672 8.56637 12.6672L8.56314 12.664ZM33.8832 12.3555C34.595 12.3555 35.1709 12.9331 35.1709 13.6452C35.1709 14.3573 34.595 14.9349 33.8832 14.9349C33.1715 14.9349 32.5956 14.3573 32.5956 13.6452C32.5956 12.9331 33.1715 12.3555 33.8832 12.3555Z" fill="#171717"></path>
</svg>
