<svg width="40" height="40" viewBox="0 0 40 40" fill="none" xmlns="http://www.w3.org/2000/svg">
<path d="M40 20.0361C40 9.26547 31.0468 0.536133 20 0.536133C8.95317 0.536133 0 9.26547 0 20.0361C0 29.7709 7.3125 37.8375 16.875 39.3V25.6729H11.7968V20.0361H16.875V15.74C16.875 10.8536 19.8594 8.15332 24.4297 8.15332C26.6172 8.15332 28.9062 8.53418 28.9062 8.53418V13.333H26.3828C23.8984 13.333 23.125 14.8374 23.125 16.3799V20.0361H28.6718L27.7852 25.6729H23.125V39.3C32.6875 37.8375 40 29.7709 40 20.0361Z" fill="#1877F2"></path>
<path d="M27.7852 25.6729L28.6719 20.0361H23.125V16.3799C23.125 14.8374 23.8985 13.333 26.3829 13.333H28.9063V8.53418C28.9063 8.53418 26.6172 8.15332 24.4297 8.15332C19.8595 8.15332 16.875 10.8536 16.875 15.74V20.0361H11.7969V25.6729H16.875V39.3C17.8945 39.4562 18.9375 39.5361 20 39.5361C21.0625 39.5361 22.1055 39.4562 23.125 39.3V25.6729H27.7852Z" fill="white"></path>
</svg>
