<svg width="41" height="41" viewBox="0 0 41 41" fill="none" xmlns="http://www.w3.org/2000/svg">
<circle cx="20.1353" cy="20.1353" r="20.1353" fill="black"></circle>
<path d="M20.5477 19.5788C22.5987 19.5105 24.2218 17.8776 24.2417 15.8537L24.2383 14.1138L26.495 14.109L26.4991 16.0329C26.4613 19.1623 23.7423 21.6364 20.5524 21.7138V21.7131C17.31 21.6997 14.5599 19.2188 14.5087 16.0565L14.5016 12.5981C14.4959 12.2445 14.7262 12.0145 15.0745 12.0189L24.2329 12L24.2373 14.1128L17.0554 14.1293C16.8713 14.1296 16.7607 14.2417 16.761 14.4242L16.7637 15.8335C16.7924 17.884 18.4502 19.562 20.547 19.5788H20.5477Z" fill="#FDFDFD"></path>
<path d="M18.8822 25.6645H18.2438V28.9993H18.8822V25.6645Z" fill="#FDFDFD"></path>
<path d="M13.5085 24.2573H15.1352C16.6167 24.2573 17.4135 25.3029 17.4135 26.6286C17.4135 27.9544 16.59 29 15.1292 29H13.5085V24.2573ZM15.0138 28.4349C16.1574 28.4349 16.7752 27.8349 16.7752 26.6306C16.7752 25.4264 16.1223 24.822 15.0388 24.822H14.1468V28.4349H15.0138Z" fill="#FDFDFD"></path>
<path d="M18.1551 24.5506C18.1551 24.3249 18.3379 24.1424 18.5638 24.1424C18.7898 24.1424 18.9725 24.3249 18.9725 24.5506C18.9725 24.7762 18.7894 24.9587 18.5638 24.9587C18.3382 24.9587 18.1551 24.7758 18.1551 24.5506Z" fill="#FDFDFD"></path>
<path d="M12.4027 25.6645H11.7643V28.9993H12.4027V25.6645Z" fill="#FDFDFD"></path>
<path d="M7 24.2573H8.62678C10.1082 24.2573 10.9051 25.3029 10.9051 26.6286C10.9051 27.9544 10.0816 29 8.62071 29H7V24.2573ZM8.50538 28.4349C9.64891 28.4349 10.2667 27.8349 10.2667 26.6306C10.2667 25.4264 9.61384 24.822 8.53033 24.822H7.63837V28.4349H8.50538Z" fill="#FDFDFD"></path>
<path d="M11.676 24.5506C11.676 24.3249 11.8588 24.1424 12.0847 24.1424C12.3106 24.1424 12.4934 24.3249 12.4934 24.5506C12.4934 24.7762 12.3103 24.9587 12.0847 24.9587C11.8591 24.9587 11.676 24.7758 11.676 24.5506Z" fill="#FDFDFD"></path>
<path d="M25.1772 25.5615C24.1075 25.5615 23.5187 26.172 23.5187 27.2806C23.5187 28.3891 24.1078 28.9997 25.1772 28.9997C26.2465 28.9997 26.8356 28.3891 26.8356 27.2806C26.8356 26.172 26.2465 25.5615 25.1772 25.5615ZM25.1772 28.6094C24.324 28.6094 23.9095 28.1746 23.9095 27.2806C23.9095 26.3865 24.324 25.9518 25.1772 25.9518C26.0303 25.9518 26.4448 26.3865 26.4448 27.2806C26.4448 28.1746 26.0303 28.6094 25.1772 28.6094Z" fill="#FDFDFD"></path>
<path d="M28.8283 25.5615C27.759 25.5615 27.1698 26.172 27.1698 27.2806C27.1698 28.3891 27.759 28.9997 28.8283 28.9997C29.8976 28.9997 30.4868 28.3891 30.4868 27.2806C30.4868 26.172 29.8976 25.5615 28.8283 25.5615ZM28.8283 28.6094C27.9751 28.6094 27.5607 28.1746 27.5607 27.2806C27.5607 26.3865 27.9751 25.9518 28.8283 25.9518C29.6815 25.9518 30.0959 26.3865 30.0959 27.2806C30.0959 28.1746 29.6815 28.6094 28.8283 28.6094Z" fill="#FDFDFD"></path>
<path d="M21.1116 24.5297H23.6003V24.1566H20.7133V28.9997H21.1116V26.8475H23.1727V26.4741H21.1116V24.5297Z" fill="#FDFDFD"></path>
<path d="M33.623 24.2283V26.0491C33.3545 25.7265 32.9452 25.5554 32.4066 25.5554C31.3845 25.5554 30.8213 26.1669 30.8213 27.2775C30.8213 28.3881 31.3845 28.9997 32.4066 28.9997C32.9404 28.9997 33.3475 28.8313 33.6162 28.5141L33.6466 28.935H34V24.1428L33.623 24.2286V24.2283ZM32.4066 28.6087C31.6033 28.6087 31.2125 28.1733 31.2125 27.2772C31.2125 26.3811 31.603 25.9457 32.4066 25.9457C33.2102 25.9457 33.6004 26.3811 33.6004 27.2772C33.6004 28.1733 33.2099 28.6087 32.4066 28.6087Z" fill="#FDFDFD"></path>
</svg>
