<svg width="41" height="40" viewBox="0 0 41 40" fill="none" xmlns="http://www.w3.org/2000/svg">
<path d="M0 20.0361C0 9.26658 9.17816 0.536133 20.5 0.536133C31.8218 0.536133 41 9.26658 41 20.0361C41 30.8057 31.8218 39.5361 20.5 39.5361C9.17816 39.5361 0 30.8057 0 20.0361Z" fill="#FF0000"></path>
<path d="M30.9761 15.2202C30.7246 14.3013 29.9837 13.5777 29.0428 13.3321C27.3377 12.8857 20.4997 12.8857 20.4997 12.8857C20.4997 12.8857 13.6618 12.8857 11.9566 13.3321C11.0157 13.5777 10.2747 14.3013 10.0232 15.2202C9.56641 16.8857 9.56641 20.3607 9.56641 20.3607C9.56641 20.3607 9.56641 23.8357 10.0232 25.5013C10.2747 26.4202 11.0157 27.1438 11.9566 27.3895C13.6618 27.8357 20.4997 27.8357 20.4997 27.8357C20.4997 27.8357 27.3377 27.8357 29.0428 27.3895C29.9837 27.1438 30.7246 26.4202 30.9761 25.5013C31.4331 23.8357 31.4331 20.3607 31.4331 20.3607C31.4331 20.3607 31.4331 16.8857 30.9761 15.2202Z" fill="white"></path>
<path d="M18.4492 23.9365V17.4365L23.9159 20.6866L18.4492 23.9365Z" fill="#FF0000"></path>
</svg>
