<svg width="34" height="32" viewBox="0 0 34 32" fill="none" xmlns="http://www.w3.org/2000/svg">
<path d="M31.0203 16C31.0203 16 31.0078 16 31 16H3C2.44844 16 2 15.5516 2 15C2 6.72969 8.72969 0 17 0C25.2703 0 31.8875 6.61719 31.9984 14.7937C32.0125 14.8594 32.0203 14.9297 32.0203 15C32.0203 15.5531 31.5719 16 31.0203 16ZM29.9625 14C29.45 7.29687 23.8328 2 17 2C10.1672 2 4.55 7.29687 4.0375 14H29.9625Z" fill="#A8A8A8"></path>
<path d="M31 23H3C1.34531 23 0 21.6547 0 20C0 18.3453 1.34531 17 3 17H31C32.6547 17 34 18.3453 34 20C34 21.6547 32.6547 23 31 23ZM3 19C2.44844 19 2 19.4484 2 20C2 20.5516 2.44844 21 3 21H31C31.5516 21 32 20.5516 32 20C32 19.4484 31.5516 19 31 19H3Z" fill="#A8A8A8"></path>
<path d="M30 32H4C2.50625 32 1 30.7625 1 28C1 25.2375 2.50625 24 4 24H30C31.4937 24 33 25.2359 33 28C33 30.7641 31.4937 32 30 32ZM4 26C3.39219 26 3 26.7859 3 28C3 29.2141 3.39219 30 4 30H30C30.6078 30 31 29.2156 31 28C31 26.7844 30.6078 26 30 26H4Z" fill="#A8A8A8"></path>
<path d="M10 10C10 10.5531 9.55312 11 9 11C8.44687 11 8 10.5531 8 10C8 9.44687 8.44687 9 9 9C9.55312 9 10 9.44687 10 10Z" fill="#A8A8A8"></path>
<path d="M12 7C12 7.55312 11.5531 8 11 8C10.4469 8 10 7.55312 10 7C10 6.44687 10.4469 6 11 6C11.5531 6 12 6.44687 12 7Z" fill="#A8A8A8"></path>
<path d="M15 8C15.5523 8 16 7.55228 16 7C16 6.44771 15.5523 6 15 6C14.4477 6 14 6.44771 14 7C14 7.55228 14.4477 8 15 8Z" fill="#A8A8A8"></path>
<path d="M19 8C19.5523 8 20 7.55228 20 7C20 6.44771 19.5523 6 19 6C18.4477 6 18 6.44771 18 7C18 7.55228 18.4477 8 19 8Z" fill="#A8A8A8"></path>
<path d="M24 7C24 7.55312 23.5531 8 23 8C22.4469 8 22 7.55312 22 7C22 6.44687 22.4469 6 23 6C23.5531 6 24 6.44687 24 7Z" fill="#A8A8A8"></path>
<path d="M14 10C14 10.5531 13.5531 11 13 11C12.4469 11 12 10.5531 12 10C12 9.44687 12.4469 9 13 9C13.5531 9 14 9.44687 14 10Z" fill="#A8A8A8"></path>
<path d="M18 10C18 10.5531 17.5531 11 17 11C16.4469 11 16 10.5531 16 10C16 9.44687 16.4469 9 17 9C17.5531 9 18 9.44687 18 10Z" fill="#A8A8A8"></path>
<path d="M22 10C22 10.5531 21.5531 11 21 11C20.4469 11 20 10.5531 20 10C20 9.44687 20.4469 9 21 9C21.5531 9 22 9.44687 22 10Z" fill="#A8A8A8"></path>
<path d="M26 10C26 10.5531 25.5531 11 25 11C24.4469 11 24 10.5531 24 10C24 9.44687 24.4469 9 25 9C25.5531 9 26 9.44687 26 10Z" fill="#A8A8A8"></path>
</svg>
