<svg width="41" height="41" viewBox="0 0 41 41" fill="none" xmlns="http://www.w3.org/2000/svg">
<circle cx="20.1353" cy="20.5992" r="20.1353" fill="black"></circle>
<path d="M19.3303 25.7468C19.3401 24.8647 18.6003 24.142 17.6774 24.1327C16.7545 24.1233 15.9985 24.8305 15.9887 25.7127C15.979 26.5949 16.7187 27.3175 17.6416 27.3269C17.6474 27.3269 17.6532 27.3269 17.659 27.3269C18.5692 27.3393 19.3173 26.6439 19.3303 25.7741C19.3303 25.7651 19.3303 25.7558 19.3303 25.7468ZM20.6953 28.3323H19.3047V27.8638C18.8094 28.2539 18.1864 28.4659 17.5445 28.4621C15.8984 28.4621 14.6104 27.2537 14.6104 25.7448C14.6104 24.2359 15.8984 23.0281 17.5445 23.0281C18.1864 23.0246 18.8094 23.2363 19.3047 23.6265V23.1579L20.6953 23.161V28.3323ZM24.2721 27.159C23.9535 27.159 23.7494 27.0278 23.7494 26.7527V24.3346H25.3178V23.1617H23.7494V21.6894H22.3464V23.1617H21.2874V24.3346H22.3464V27.0872C22.3464 27.7816 22.8695 28.332 23.8133 28.332H25.3181V27.159H24.2721ZM28.4874 28.4639C30.0948 28.4639 31 27.7457 31 26.7527C31 26.0459 30.4643 25.5193 29.3417 25.2918L28.1558 25.0642C27.467 24.9451 27.2499 24.8253 27.2499 24.586C27.2499 24.2739 27.5818 24.0833 28.1941 24.0833C28.8573 24.0833 29.3417 24.2507 29.4822 24.8253H30.8729C30.7959 23.748 29.9669 23.0298 28.2833 23.0298C26.8291 23.0298 25.8087 23.5923 25.8087 24.6817C25.8087 25.4354 26.37 25.9264 27.5818 26.1653L28.9082 26.4526C29.4313 26.5482 29.5714 26.6801 29.5714 26.8842C29.5714 27.207 29.1762 27.4104 28.5369 27.4104C27.7339 27.4104 27.2745 27.243 27.0957 26.6684H25.6938C25.8979 27.7457 26.7529 28.4639 28.4874 28.4639ZM9.00217 21.3307H14.2448V22.5278H10.4178V24.2393H14.1422V25.4005H10.4178V27.1356H14.2448V28.3327H9.00217V21.3307Z" fill="#FDFDFD"></path>
<path d="M30.8729 15.2655V14.3236H30.5001C29.9012 14.3236 29.4656 14.5839 29.1994 14.9937V14.3657H28.1334V19.4658H29.2102V16.5658C29.2102 15.7758 29.7213 15.2648 30.4253 15.2648L30.8729 15.2655ZM23.1339 16.446C23.326 15.6653 23.9975 15.145 24.7973 15.145C25.597 15.145 26.2674 15.6653 26.4491 16.446H23.1339ZM24.8186 14.2652C23.2888 14.2531 22.0383 15.4288 22.0257 16.8911C22.0257 16.8994 22.0257 16.9076 22.0257 16.9163C22.0257 18.4365 23.2834 19.5767 24.9147 19.5767C25.9062 19.5767 26.7157 19.1665 27.2596 18.4863L26.4794 17.9459C26.0745 18.4559 25.5414 18.6965 24.9125 18.6965C24.0203 18.7024 23.2563 18.0875 23.1108 17.246H27.5345V16.9159C27.5345 15.3953 26.3837 14.2649 24.8168 14.2649M18.6682 18.6948C17.646 18.6872 16.8235 17.8889 16.8314 16.9118C16.8394 15.9346 17.6745 15.1484 18.6967 15.156C19.7136 15.1636 20.5335 15.9533 20.5339 16.9253C20.5306 17.9055 19.6966 18.6979 18.6707 18.6948C18.67 18.6948 18.6693 18.6948 18.6686 18.6948M15.7373 19.4644H16.8033V18.8243C17.3187 19.3136 18.0166 19.587 18.743 19.5846C20.3421 19.5846 21.5998 18.3944 21.5998 16.9242C21.5998 15.454 20.3421 14.2535 18.743 14.2535C18.0195 14.251 17.3252 14.5245 16.8141 15.0138V12.4639H15.7373V19.4648V19.4644ZM11.9533 18.6444C12.9878 18.6444 13.7864 17.8945 13.7864 16.7837V12.4646H14.9058V19.4665H13.7973V18.8164C13.2963 19.3067 12.6035 19.5867 11.8254 19.5867C10.2256 19.5867 9 18.4963 9 16.8458V12.4649H10.1194V16.7844C10.1194 17.9152 10.9079 18.6451 11.9525 18.6451" fill="#FDFDFD"></path>
</svg>
